<svg xmlns="http://www.w3.org/2000/svg" viewBox="0 0 30 29.99"><defs><style>.cls-1{fill:#fff;}</style></defs><g id="Capa_2" data-name="Capa 2"><g id="Capa_1-2" data-name="Capa 1"><path class="cls-1" d="M28.91.56A2.86,2.86,0,0,0,27.15,0H2.88A2.7,2.7,0,0,0,.12,2.08c0,.18-.08.36-.12.54V27.36c0,.14.06.27.08.41A2.69,2.69,0,0,0,2.4,29.92a2.17,2.17,0,0,1,.24.07H27.38l.45-.08A2.66,2.66,0,0,0,30,27.55c0-.36.05-.72.05-1.08V3A2.8,2.8,0,0,0,28.91.56ZM9.34,17.39v8.23c0,.82-.3,1.11-1.11,1.11H5.3a.86.86,0,0,1-1-1V11.94a.83.83,0,0,1,1-1H8.35a.87.87,0,0,1,1,1ZM6.8,9.72a3.24,3.24,0,1,1,3.25-3.23A3.24,3.24,0,0,1,6.8,9.72ZM26,26.73H22.69a.79.79,0,0,1-.9-.9c0-2.42,0-4.84,0-7.27a7.48,7.48,0,0,0-.23-1.7,2.18,2.18,0,0,0-2.05-1.79A2.4,2.4,0,0,0,17,16.48a5,5,0,0,0-.5,2.2v7.1c0,.65-.3.95-.94.95H12.39a.83.83,0,0,1-.92-.93V11.88a.8.8,0,0,1,.9-.9h3.26a.78.78,0,0,1,.87.86v.88c.4-.36.78-.77,1.22-1.1a4.85,4.85,0,0,1,2.55-.85,7.44,7.44,0,0,1,3.21.34,4.69,4.69,0,0,1,2.76,2.82,9.17,9.17,0,0,1,.62,3.31c.05,2.86.05,5.71.06,8.56A.84.84,0,0,1,26,26.73Z"/></g></g></svg>