<svg xmlns="http://www.w3.org/2000/svg" viewBox="0 0 28.3 28.3"><defs><style>.cls-1{fill:#fff;}</style></defs><g id="Capa_2" data-name="Capa 2"><g id="Capa_1-2" data-name="Capa 1"><path class="cls-1" d="M14.13,19.83a5.55,5.55,0,0,0,3.65-9.73,5.56,5.56,0,0,0-5.94-.88,5.42,5.42,0,0,0-1.36.89,5.54,5.54,0,0,0,3.65,9.72Zm0-9.65a4.1,4.1,0,1,1-4.1,4.1A4.1,4.1,0,0,1,14.15,10.18Zm6.16.44h8V22.73a5.57,5.57,0,0,1-5.57,5.57H5.64A5.63,5.63,0,0,1,0,22.73V10.62H8a7,7,0,0,0-1,3.66,7.21,7.21,0,1,0,14.41,0A7.08,7.08,0,0,0,20.31,10.62ZM22.73,0H8.26V4.5H7.08V0H5.89V4.5H4.72V.09A5.7,5.7,0,0,0,3.54.41V4.5H2.35V1.06A5.55,5.55,0,0,0,0,5.57V9.43H8.8a7.21,7.21,0,0,1,10.65,0H28.3V5.57A5.57,5.57,0,0,0,22.73,0Zm.95,5.38a.48.48,0,0,1-.48.49H21.56a.48.48,0,0,1-.47-.49V3.74a.48.48,0,0,1,.47-.48H23.2a.48.48,0,0,1,.48.48Z"/></g></g></svg>