<svg xmlns="http://www.w3.org/2000/svg" width="728.127" height="988.115" viewBox="0 0 728.127 988.115">
  <g id="Group_33737" data-name="Group 33737" transform="translate(-2031.427 -588.865)">
    <path id="Path_6974" data-name="Path 6974" d="M2759.45,1250.56c-.77-4.97-1.42-10.04-2.96-14.8-2.34-7.24-5.32-14.29-8.22-21.34-1.22-2.98-3.03-5.48-1.75-9.23.54-1.57-1.29-4.63-2.89-6.1-2.73-2.54-4.3-4.77-2.26-8.46,1.81-3.29.14-5.62-2.54-7.57a93.732,93.732,0,0,1-8.51-6.55c-3.05-2.81-5.33-6.65-8.73-8.82-2.61-1.68-5.16-2.36-4.83-6.17.05-.62-1.73-1.8-2.81-2.03-3.86-.84-7.78-1.37-12.03-2.08,3.67-3.28,6.9-6.39,10.37-9.22,5.37-4.38,11.09-8.35,16.27-12.94a22.632,22.632,0,0,0,5.56-8.06c.66-1.59.07-5.2-1.05-5.78-4.8-2.5-5.63-7.22-7.4-11.39-1.49-3.5-3.38-5.94-7.56-6.18a4.589,4.589,0,0,1-3.13-2.51c-2.74-6.88-5.4-13.79-7.68-20.82-.97-3.01-.77-6.38-1.42-9.52-.72-3.5-.95-7.58-2.97-10.17a7.356,7.356,0,0,1-1.54-7.09c2.51-11.49,4.42-23.32,1.96-34.77-1.68-7.76.76-10.97,7.01-13.77,3.89-1.74,4.4-5.47,3.97-9.41a39.548,39.548,0,0,1-.25-6.88c.37-6.08,5.68-8.69,9.26-12.42,2.87-2.99,4.62-5.45,1.38-9.31-1-1.19-.77-3.38-1.15-5.1-.35-1.58-.32-3.48-1.21-4.65-3.58-4.65-21.27-7.53-25.78-3.61-3.75,3.28-7.38,2.89-11.71,3.18-7.63.5-15.65.88-22.79,2.6-9.7,2.34-18.28-.98-27.23-1.67-5.57-.43-9.81-1.26-13.65,3.56-1.72,2.15-4.11,4.14-6.97.61a4.9,4.9,0,0,0-4.48-1.02c-3.17,1.31-4.49-.52-6.09-2.51-11.74-14.68-23.62-29.25-35.23-44.03-3.14-3.99-6.8-4.13-10.5-2.16-2.64,1.41-4.43,1-6.86-.09-5.15-2.31-10.43-4.34-15.72-6.34-11.6-4.38-20.47,6.14-31.32,5.82a24.466,24.466,0,0,1-6.01-.95c-1.18-.32-2.14-1.79-3.26-1.88-6.95-.54-13.91-1.11-20.87-1.08-2.67,0-5.32,1.63-8.03,2.33-1.99.52-4.16,1.28-6.09.95-7.65-1.31-11.54-5.94-12.96-14.76s-2-9.32-10.84-9.5c-5.22-.1-7.32-2.2-7.1-7.21.29-6.42,1.03-12.86.83-19.27-.13-4.09,2.04-6.13,4.55-8.55,1.32-1.27,2.75-3.48,2.56-5.08a114.579,114.579,0,0,0-3.18-15.28c-.32-1.23-1.95-2.11-2.96-3.16-4.46-4.65-10.45-8.6-13-14.13-3.55-7.71-5.09-16.52-6.36-25.03-.57-3.77-1.94-5.05-4.98-5.24-1.98-.13-4.02.56-6.04.88-1.84-12.09-2.33-12.33-12.92-6.3a15.327,15.327,0,0,1-2.61,1.46c-1.89.61-3.84,1.03-5.77,1.53-.29-.41-.58-.81-.87-1.21,2.2-3.82,4.05-7.9,6.69-11.38,5.32-7.03,10.54-14.06,13.86-22.3a12.819,12.819,0,0,0,1.15-3.2c1.25-13.13.9-26.55,7.49-38.68,3.55-6.53,6.73-13.26,10.16-19.85.42-.82,1.41-1.31,2.03-2.04,1.97-2.31,4.47-4.39,5.7-7.05,3.22-6.91,4.47-7.78,12.23-8.04a7.4,7.4,0,0,0,5.3-3.01c4.51-7.57,8.38-15.52,12.94-23.06a11.37,11.37,0,0,1,6.24-4.64c14.27-3.74,28.77-6.47,41.17-15.49,5.61-4.08,7.12-6.88,4.05-13.23-1.16-2.4-2.21-4.85-3.21-7.31-1.6-3.96-3.85-6.84-8.65-7.07a11.433,11.433,0,0,1-5.49-2.06,16.362,16.362,0,0,0-20.47,1.25c-.86.78-2.38.86-3.6,1.22-1.71.51-3.48.87-5.15,1.5-3.29,1.24-6.43,3.32-9.8,3.76-4.68.62-5.88,2.44-5.85,7.09.04,6.44-2.23,12.99-7.9,16.25-6.39,3.68-13.8,5.59-20.71,8.38a54.083,54.083,0,0,0-9.43,4.41c-6.8,4.42-13.96,8.56-19.85,14.03a28.052,28.052,0,0,1-22.2,7.86c-7.81-.57-15.55-.09-23.31-3.74-7.73-3.62-14.97-1.13-17.51,8.64-2.2,8.46-5.8,16.56-8.79,24.82-.71.05-1.42.11-2.13.17-.78-2.74-1.6-5.45-2.3-8.2-.42-1.66-.07-3.88-1.04-4.97-5.95-6.72-20.62-8.34-28.01-3.13-5.44,3.84-10.65,8.03-15.93,12.1-.64.49-1.02,1.33-1.65,1.85-2.16,1.81-4.46,3.46-6.57,5.33a119.838,119.838,0,0,0-9.41,8.88c-1.43,1.59-2.12,3.92-2.89,6a41.543,41.543,0,0,0-1.95,6.74c-.63,3.23-1.94,6.68,1.87,9.13.31.2-.02,1.58-.24,2.37-.86,3.2-1.59,6.45-2.75,9.55-1.66,4.45-2.84,9.44-5.72,12.99-2.97,3.68-2.26,4.82,1.36,6.4,5.14,2.25,6.29,7.22,1.94,10.5-2.07,1.56-5.6,1.15-8.46,1.69-3.97.74-8.04,1.2-11.88,2.37-10.3,3.13-12.94,13.22-17.12,21.15-2.2,4.17-4.11,6.83-8.22,8.62-2.85,1.24-5.21,3.56-8.01,4.94-6.4,3.16-10.62,10.22-18.86,10.25-1.34.01-2.94,2.4-3.86,4.01-.34.59.67,2.71,1.54,3.1,6.06,2.78,7.31,7.57,6.46,13.63-.26,1.91.37,3.93.54,5.91.33,3.8.75,7.6.87,11.41.09,2.85-1.8,3.4-4.34,3.33-2.74-.08-3.39-1.38-3.19-3.81.2-2.32.74-4.87.03-6.94-1.12-3.27-2.6-6.73-4.9-9.22-4.71-5.07-10.1-9.51-15.08-14.34-.72-.7-.58-2.21-1.08-3.24a12.632,12.632,0,0,0-2.32-3.72c-4.19-3.93-6.79-3.08-11.61,3.42-2.26,3.05-2.08,5.11,1.48,7.23,1.77,1.05,2.89,3.5,3.84,5.53s.67,5.41,2.11,6.3c4.96,3.06,5.73,8.32,7.98,12.81,1.07,2.13.82,3.52-1.76,4.62a12.885,12.885,0,0,0-7.99,14.64c-3.58,2.37-7.15,4.73-10.02,6.63-4.17-3.87-7.93-7.35-12.63-11.71-.7,3-1.52,4.48-1.27,5.74,1.12,5.57,2.73,11.12-3.57,14.88-.21.12-.19.62-.3.93-4.3,12.21-4.3,12.21,4.82,21.22a9.2,9.2,0,0,0,.77.63c2.59,1.99,3.52,4.02,1.25,7.13-1.45,2-2.27,5.77.9,6.23,5.67.82,6.83,5.06,9.04,8.85.63,1.08,1.99,2.35,3.09,2.43,3.71.24,8.07,4.84,7.33,8.53-.79,4.01-1.97,7.93-2.99,11.92-5.28-.37-5.85-.01-5.44,5.47a16.213,16.213,0,0,0,2.29,6.31c3.32,5.91,7.11,11.58,10.23,17.59,2.65,5.11.35,9.16-5.28,10.33-1.47.3-3.36-.02-4.36.79a91.517,91.517,0,0,0-7.07,7c1.86,1.3,3.95,2.38,5.52,3.96,1.62,1.63,3.54,3.6,3.92,5.68.86,4.71.69,9.59,1.25,14.37.8,6.83.37,13.62,2.24,20.59,1.56,5.84-1.65,12.88-2.36,19.43-.42,3.83-.08,7.74-.08,12.5-4.8,2.81-6.22,5.99-3.64,13.19.78,2.17,3.52,3.63,5.35,5.42.34-.33.68-.67,1.02-1,1.26,3.99,2.31,8.18,7.58,8.24,0,2.71,1.07,6.67-.18,7.63-5.9,4.56-7.47,12.92-14.68,16.19-.69.31-.37,2.45-.92,3.55-2.34,4.68-4.81,9.31-7.34,13.89-.2.37-1.28.15-1.87.4-2.1.9-5.35,1.42-5.94,2.94-.68,1.75.99,4.42,2.01,7.98-1.5,4.79-13.21,6.5-7.36,15.65-3.75,1.21-6.97,2.3-10.22,3.3-3.2.98-6.7,3.12-9.58,2.5-4.33-.93-8.13-3.24-11.44,1.63a1.951,1.951,0,0,1-1.85.11c-5.12-3.29-8.38-.13-11.35,3.37-9.24,10.89-13.15,17.1-4.36,28.7,1.69,2.24,3.99,5.75.26,8.71-9.41-2.09-18.45-3.94-25,6.12-3.56,5.46-3.22,7.6,2.9,9.91a17.6,17.6,0,0,1,6.49,3.87c4.13,4.38,7.16,10.06,11.85,13.6,8.2,6.21,17.2,11.4,26.08,16.64,7.12,4.2,14.49,7.96,21.88,11.66,1.28.64,3.23.2,4.8-.11a40.171,40.171,0,0,0,5.35-1.97c.02,6.51,4.3,9.26,9.19,10.61,3.44.96,3.89,2.61,3.91,5.62.05,8.34,1.34,10.16,9.22,12.25,3.75.99,7.75,1.01,11.62,1.61a21.276,21.276,0,0,1,3.63,1.29c6.46,2.27,12.53,5.98,19.92,4.78,2.39-.38,4.98.64,7.44.48,4.51-.3,9-.96,13.48-1.6.34-.05.81-1.12.78-1.69-.34-5.8,3.93-4.89,7.43-5.27,4.02-.44,6.28,2.45,9.01,4.51,2,1.51,4.04,2.97,6,4.54,4.73,3.79,8.89,9.11,14.27,11.06,6.59,2.38,13.25,4.56,19.85,7,4.44,1.65,10.78,6.9,15.56-1.67,3.6,2.37,6.76,4.76,10.2,6.61,3.08,1.66,6.39,3.45,9.75,3.83,3.06.34,4.63,1.17,5.1,4.04.66,4.1,3.66,5.85,6.91,7.8,4.48,2.68,9.76,5.18,12.55,9.24a38.1,38.1,0,0,1,5.93,16.73c.95,8.21,2.24,10.5,10.38,12.24,2.51.53,4.84,2.14,7.09,3.53,5.48,3.39,10.52,7.79,16.41,10.11,3.62,1.43,7.11,1.91,8.92,5.82,1.61,3.46,3.54,6.78,5.01,10.3.32.76-1.1,2.1-1.05,3.14.15,3.12-.43,8.06,1.17,8.98,5.3,3.05,10.43,8.08,17.7,5.39.81-.3,2.47.69,3.27,1.53,2.82,2.93,3.5,14.61,1.24,18.19-2.71,4.28-.94,9.06,3.67,11.19,3.17,1.47,5.85,4.01,9.03,5.44,1.99.9,5.1,1.61,6.66.67,3.05-1.85,5.42-1.39,8.39-.33,1.57.57,4.04.6,5.27-.29,2.86-2.08,8.97-2.48,12.29-.72,4.15,2.2,8.51,5.21,13.21.77.49-.46,1.59-.2,2.37-.41,4.95-1.35,8.21-6.87,14.2-5.75.21.04.55-1.16.98-1.64,2.24-2.53,4.25-5.41,6.91-7.4,2.73-2.05,11.74.92,13.57,4.1,1.3,2.29,2.35,4.58,5.66,3a1.915,1.915,0,0,1,1.61.43c5.33,4.87,11.14,1.91,16.54.6,3.94-.95,7.47-3.55,11.27-5.25a3.892,3.892,0,0,1,2.9.12c5.19,2.43,10.75,4.17,13.76,9.95.91,1.76,3.76,2.79,5.93,3.56s4.77.43,6.92,1.25c7.25,2.79,13.18,7.7,19.28,12.66q-16.23,25.14-32.46,50.3c-6.13,9.54-6.14,9.69,3.91,15.02,1.87.98,5.13,1.57,6.64.61,6.55-4.2,10.63-3.17,14.51,3.5,3.6,6.18,7.09,12.09,13.05,16.22,1.03.71,2.07,1.39,3.11,2.09a13.615,13.615,0,0,0,1.73-3.28c1.48-6.99,2.81-14.02,4.18-21.04q12.675-64.905,25.31-129.81c.63-3.22-.15-7.54,1.69-9.54,4.48-4.89,4.45-10.49,3.52-15.86-1.04-5.97-2.99-11.77-7.34-16.74-2.79-3.19-5.61-8.23-5.13-12.02,1.14-8.91-.08-12.82-8.11-16.41-2.02-.9-3.58-2.8-5.4-4.17-2.07-1.55-4.16-3.07-6.31-4.51-4.08-2.74-7.72-5.85-7.64-11.29q.24-16.965.78-33.92c.04-1.36.58-3.65,1.38-3.89,6.67-2.01,13.46-3.62,20.2-5.41a22.871,22.871,0,0,0,5.73-1.92c3.09-1.81,5.59-2.62,8.89.05a20.123,20.123,0,0,0,9.2,4.13c2.5.37,5.45-1.01,7.83-2.29.52-.28-.6-3.42-.78-5.26a15.492,15.492,0,0,1,.06-4.41c1.14-5.88-2.65-14.45-8.26-16.51-2.56-.93-5.89.52-8.8.22-7.62-.78-15.2-1.92-22.78-2.91v-32.86c4.18-.75,8.29-1.66,12.44-2.19a51.407,51.407,0,0,1,8.86-.26c1.95.09,3.86,1.07,5.8,1.08q32.955.12,65.91.02a23.1,23.1,0,0,0,4.13-.68,98.431,98.431,0,0,1-1.96-9.84c-.1-1.02,1.19-2.18,1.85-3.27a18.972,18.972,0,0,1,3.48,2.27c.64.64.68,1.85,1.09,2.76,3.46,7.77,10.48,10.05,17.44,5.35,2.28-1.53,3.89-4.03,5.86-6.04,4.14-4.2,7.97-8.82,12.59-12.41,4.16-3.24,7.6-1.8,10.04,3.03,1.64,3.25,2.61,7.09,4.96,9.69,6.95,7.71,9.99,16.27,7.94,26.54a15.025,15.025,0,0,0-.47,4.45c1.25,11.07-2.25,11.79,10.71,8.88C2758.43,1255.88,2759.99,1254.02,2759.45,1250.56ZM2605.42,966.92c3-1.59,5.23-3.65,8.63-.22,2.84,2.87,6.29.69,8.34-1.6,3.72-4.13,7.46-3.81,12.73-3.4,8.98.7,17.93,5.49,27.23,1.14,1.75-.82,4.25.12,6.39-.01,2.94-.19,5.87-.56,8.78-.98,2.28-.33,4.57-1.34,6.79-1.16,5.39.44,10.24.72,14.49-3.99,2.45-2.71,18.23-.04,20.43,2.79.59.76.5,2.12.59,3.22.11,1.28-.46,3.09.2,3.79,3.97,4.23,1.51,7.07-1.81,9.77-6.8,5.51-9.33,12.39-7.84,21.15.28,1.67-2.16,4.51-4.04,5.7-3.81,2.4-7.69,4.81-7.68,9.64.02,4.66,1.21,9.32,1.91,13.97.15.96.72,1.94.6,2.84-1.19,8.68-2.35,17.37-3.82,26.01-.48,2.83-.47,4.66,1.98,6.92,1.87,1.73,3.31,5.45,2.84,7.88a16.526,16.526,0,0,0,1.7,11.49c1.81,3.4,2.11,6.04-2.16,7.9-2.07.91-3.75,2.71-5.85,4.29-3.28-2.99-5.78-5.72-10.75-3.55-2.6,1.14-6.47-1.02-9.58-.51a21.794,21.794,0,0,0-9.18,3.97c-5.04,3.8-8.92,9.52-16.57,7.93-1.15-.24-2.54.62-3.8,1.02-5.6,1.8-11.2,3.62-16.81,5.4-.95.3-2.14.89-2.9.58-6.76-2.78-13.99-.39-20.8-2.03-4.91-1.19-9.56.68-11.88,5.06-.56,1.06-1.98,2.72-2.53,2.56-6.81-2.09-10.24,3.57-15,6.19-2.8,1.53-5.74,2.8-8.62,4.21-3.15,1.54-7.26,2.15-6.27,7.43.22,1.2-.82,3.63-1.72,3.88-6.97,1.93-6.65,8.09-7.62,13.14-1.71,8.89-9.05,12.43-17.06,7.74-.86-.5-1.62-1.16-3.02-2.18-.92,1.84-1.75,3.5-2.74,5.47-3.13.02-6.58,1.24-8.79-2.82-.42-.76-2.36-1.01-3.57-.94-2.37.14-4.71.66-7.53,1.1v-14.33c0-33.46-.45-66.94.35-100.38a24.3,24.3,0,0,1,11.58-20.4c4.66-2.93,7.98-7.99,11.94-12.06a15.269,15.269,0,0,1,2.94-2.52,124.161,124.161,0,0,1,11.31-6.31,31.68,31.68,0,0,1,9.34-2.76c10.26-1.2,15.81-7.9,19.52-16.51,6.22-14.42,3.77-11.32,19.9-12.2C2599.2,970.07,2602.49,968.48,2605.42,966.92Zm-338.36,327.94c-3.6,1.18-3.88-.64-4.53-3.14-.81-3.1-1.57-6.35-3.14-9.08-.77-1.33-3.3-2.17-5.09-2.29-4.84-.32-9.16-.85-12.99-4.69-1.77-1.77-5.71-1.91-8.65-1.84-5.41.13-9.39-2.42-11.33-7.57-.52-1.37-2.7-3.36-3.62-3.13-6.24,1.6-8.81-4.12-13.16-6.16-7.09-3.34-4.18-7.91-1.3-12.42a14.2,14.2,0,0,0,1.38-2.65c1.67-4.55,4.24-7.2,9.75-6.94,2.25.11,5.2-1.94,6.85-3.86,4.84-5.66,8.2-13.11,14-17.26,5.75-4.12,7.84-9.77,10.84-15.09a38.869,38.869,0,0,1,9.96-11.39c2-1.62,2.33-5.29,3.45-8.03.86-2.12,2.12-2.88,4.58-3.86,4.71-1.89,8.49-6.16,12.57-9.54.29-.23.18-1.47-.17-1.86-4.01-4.53-.44-8.17,2.55-9.74,2.26-1.19,6.24.78,9.42,1.51.73.16,1.3.99,1.96,1.5,8.49,6.61,8.46,6.58,2.58,15.24a6.416,6.416,0,0,0-1.18,4.02c1.32,10.33,2.57,20.68,4.41,30.93,1.24,6.9,9.23,12.83,17.01,13.11a12.975,12.975,0,0,1,9.51,4.34c6.3,6.42,13.47,10.7,22.98,6.14,1.81-.87,4.17-.61,6.27-.88-.23.54-.46,1.07-.69,1.61,3.41,4.69,6.79,9.4,10.24,14.06.97,1.31,2.93,2.39,3.08,3.72,1.05,9.6,9.27,13.19,15.24,18.63a29.245,29.245,0,0,0,4.91,3.37c3.53,2.11,6.79,2.25,9.79-1.19,1.15-1.32,3-2,4.35-3.19a15.683,15.683,0,0,0,3.09-3.61,52.036,52.036,0,0,0,2.45-5.3c3.57,1.81,7.87-3.73,11.32,1.26,1.01,1.45,3.32,2,5.05,2.93,2.83,1.52,5.06,2.89,6.62,6.51,2.41,5.56,6.54,10.62,10.83,15.03,2.07,2.13,6.26,2.07,9.29,3.46,1.28.59,2.03,2.36,3.03,3.58,1.23,1.52,2.46,3.03,3.57,4.39,2.92,3.85,5.07,8.1,8.45,10.82,5.55,4.47,11.9,7.94,18.06,11.92-3.73,4.1-7.45,8.21-11.2,12.31-.89.97-2.2,1.72-2.72,2.84-2.6,5.55-6.15,8.39-12.77,6.49-1.59-.46-4.11,1.74-5.99,3.02-2.15,1.47-4.62,2.93-5.96,5.02-2.54,3.94-4.37,8.34-6.92,13.38-.58-.15-2.77-.03-3.72-1.06-3.14-3.38-5.39-1.86-7.96.58-5.36,5.08-5.41,5.04-11.09-.06-2.44-2.19-4.63-4.27-8.17-1.32-.95.78-3.91.27-5.16-.68-3.88-2.94-6.81-3.76-10.71.44-1.29,1.38-6.57,1.22-8.14-.25-4.3-4.02-8.77-4.14-13.76-2.79-2.71.74-4.2-.21-6.46-1.91-3.8-2.86-7.29-6.33-13.4-5.89a18.357,18.357,0,0,1-14.88-5.59c-1.67-1.81-4.63-2.4-6.94-3.66-4.55-2.49-8.97-5.27-13.65-7.49-1.59-.75-3.85-.42-5.73-.15-6.13.9-9.81-2.16-9.93-8.48-.13-7.86-1.37-8.97-9.52-10.6-8.01-1.59-9.71-4.24-9.06-10.79C2277.12,1298.47,2270.65,1293.68,2267.06,1294.86Zm-86.71-94.27c2.29.31,4.42.51,6.51.93,1.76.35,3.46,1.24,5.22,1.38,4.64.37,6.4-1.39,4.43-5.46-2.7-5.55,1.24-8.47,3.43-12.17a2.457,2.457,0,0,1,2.17-.82c5.01,1.46,8.16-.8,10.92-4.72.55-.78,3.19-.94,4.31-.34,5.08,2.73,5.01,2.86,12.21,2.42-4.38-10.55-8.7-20.97-12.54-30.22,5.67-4.01,10.29-7.3,14.95-10.54.79-.55,1.83-1.36,2.59-1.21,5.61,1.14,7.68-2.56,9.38-6.7,2.33-5.67,7.2-5.93,12.31-6.44,3.54-.35,6.97-1.76,10.47-2.64,1.7-.42,3.44-.73,5.41-1.14,0,1.04.05,1.52-.01,1.98-.25,2.24-.52,4.47-.79,6.7,2.86.09,6.29,1.25,8.44.07,4.63-2.54,8.49-6.21,9.34-12.15,1.08-7.66,8.02-11.46,12.08-17.17.28-.39,1.71.06,3.13.15-1.13,2.51-1.99,4.6-3,6.61-3.11,6.25-5.52,12.46-5.48,19.82.03,5.95-5.31,9.37-10.09,12.14-4,2.32-7.6,4.51-8.69,9.56-.42,1.94-2.63,3.42-3.51,5.35a19.88,19.88,0,0,0-1.47,6.03c-.17,1.58.95,4,.21,4.7-2.41,2.31-5.36,5.5-8.2,5.6-4.64.16-6.46,2.33-7.19,5.94-1,4.91-4.22,7.69-7.58,11.06-3.92,3.94-6.16,9.56-9.07,14.49-.64,1.1-.67,2.97-1.55,3.46-8.51,4.7-12.56,13.36-18.24,20.5-2.54,3.2-5.19,5.03-9.13,4.79-4.15-.26-8.43-.22-12.38-1.31-5.63-1.58-8.5-5.5-8.53-11.83-.01-2.04-2.7-5.49-4.58-5.81-5.26-.88-5.8-3.94-5.49-8.1C2180.44,1204.19,2180.35,1202.87,2180.35,1200.59Zm47.12-191.36c2.4-.52,5.15.5,7.74.83-.01.66-.01,1.32-.01,1.97-1.4.25-2.82.39-4.18.76-1.69.45-4.72.98-4.78,1.66-.34,4.67-3.1,7.45-6.04,10.71-2.66,2.95.64,8.75,4.8,9.59a6.063,6.063,0,0,0,3.45.05c6.54-3.1,11.45,2.19,17.08,3.45,1.73.39,2.77,3.83,4.13,5.87-2.08.88-4.12,2.36-6.26,2.54-12.22,1.02-21.05-5.39-29.1-13.61-1.6-1.63-4.16-2.29-6.19-3.54-1.34-.81-2.95-1.62-3.69-2.87a77.5,77.5,0,0,1-5.08-10.4c-.53-1.33-.6-3.9.19-4.51,6.53-5.02,13.48-9.26,22.32-8.99a11.382,11.382,0,0,1,.73,2.74C2222.48,1009.07,2223.78,1010.03,2227.47,1009.23Zm88.36-23.2c-.26,2.91-1.32,5.96-.74,8.66.52,2.39,2.62,4.61,4.46,6.46,1.27,1.27,3.29,1.81,5,2.62,1.57.74,3.59,1.01,4.69,2.17,4.67,4.91,10.5,4.35,12.71-1.99,1.6-4.58,3.05-4.83,6.38-1.77,1.11,1.02,3.09,1.03,4.5,1.81,2.76,1.55,5.86,2.63,5.79,6.96-.03,2.08,2.16,4.1,2.53,6.29.63,3.73,1.54,7.81.66,11.32-1.62,6.44-1.32,8.06,4.1,11.43,5.1,3.19,9.82,7,14.88,10.27,2.13,1.38,4.7,2.09,7.59,3.32-1.24,6.32-2.53,12.94-3.9,19.97-6.38-2.35-12.39-4.95-18.98-1.86-.51.24-3.3-2.26-3.4-3.6-.51-7.49-6.34-8.97-11.7-9.78-2-.31-4.96,2.98-6.81,5.19-1.7,2.03-.86,4,1.51,5.81,1.78,1.37,2.59,3.99,3.38,5.29-7.41,4.25-14.32,8.21-21.61,12.39-.28-1.14-.86-2.14-.58-2.56,4.06-5.99,4.07-12.9,4.74-19.68a2.812,2.812,0,0,1,.78-1.78c5.72-4.47,5.35-11.11,5.76-17.24.14-2.04-1.63-5.03-3.42-6.07-1.07-.61-4.35,1.28-5.74,2.85-2.4,2.7-2.43,7.35-7.03,8.43-.3.07-.11,2.54-.03,3.89.16,2.48.5,4.96.59,7.45a37.787,37.787,0,0,1-.26,5.73c-.44,3.59-1.01,7.17-1.55,10.75-.44,2.99-2.13,4.3-5.18,3.87-4.28-.6-5.09,1.89-4.85,5.43.32,4.74-.36,9.1-5.47,11.66,2.15-5.12-2.42-10.76,2.29-15.91,3.41-3.73-1.77-5.98-3.23-8.74-.3-.58-3.47.33-5.32.6s-3.92,1.27-5.51.75c-3.06-.99-5.86-2.82-9.29-4.57.84-2.46,1.86-5.03,2.6-7.69a80.323,80.323,0,0,0,2.05-9.07c1.22-7.7,2.41-15.41,3.31-23.15.51-4.44.19-8.97.7-13.4.31-2.66,1.49-5.23,2.28-7.83a33.506,33.506,0,0,0,1.68-5.63c.56-4.89.75-9.82,1.26-14.71.58-5.65,5.36-3.73,8.5-4.29,2.91-.52,6-.11,9.87-.11C2315.38,985.31,2315.86,985.69,2315.83,986.03Zm83.33,37.93c-.85-1.28-1.86-3.61-1.3-4.48a55.434,55.434,0,0,1,7.34-8.51c.12-.12,2.5,2.11,3.89,3.15,1.62,1.22,3.32,2.34,4.99,3.5.99-1.59,1.91-3.23,3-4.75a29.686,29.686,0,0,1,3.89-4.8c2.71-2.47,5.67-4.69,9.19-7.55,5.72,2.89,7.24,2.05,7.71-5.15a1.637,1.637,0,0,1,.02-.5c3.76-8.5-.23-13.1-8.54-15.52,1.29-1.97,2.79-3.33,3.11-4.93.66-3.25,3.15-6.4-.53-10.03-1.53-1.5-.53-5.58-.65-7.89,3.8,3.56,7.34,7.39,11.46,10.42,1.41,1.03,4.41.48,6.49-.09,6.51-1.8,12.87-4.18,19.41-5.84,2.78-.7,5.89.05,8.81-.25a117.426,117.426,0,0,0,15.9-2.21c6.83-1.65,13.32-.35,20.05.39,11.12,1.21,22.39,2.06,33.26-2.1,6.61-2.54,16.28.26,21.24,6.02a7.437,7.437,0,0,0,2,1.36c2.96,1.67,5.93,3.31,9.29,5.18-3.66,6.95-6.78,12.77-9.8,18.64a13.491,13.491,0,0,1-11.63,7.56c-6.98.24-11.98,4.49-17.96,6.64-7.8,2.8-10.27,10.81-16.39,15.1-.94.66-1.6,2.03-2.59,2.27-6.71,1.6-7.73,7.84-11.03,12.42-2.68,3.71-7.21,6.43-11.43,8.61-7.76,4-15.9,7.26-23.88,10.85-.75.34-1.4,1.03-2.17,1.18-6.59,1.29-11.79,4.82-16.32,9.64-2.66,2.82-5.21,2.85-9.23,1.21-3.31-1.35-8.11.42-12.09,1.42-3.06.76-5.77,3.01-8.84,3.66a80.983,80.983,0,0,1-13.22,1.28,5.038,5.038,0,0,1-3.67-1.57c-5.45-6.79-10.84-13.63-16-20.65-3.52-4.79-1.11-13.39,4.13-15.85C2401.06,1029.93,2401.57,1027.6,2399.16,1023.96Zm-7.2,28.2c5.11,6.38,10.16,12.59,15.09,18.89,1.6,2.04,3.05,2.69,5.89,2.05,5.07-1.14,10.38-1.15,15.51-2.04a19.09,19.09,0,0,0,6.55-2.78c4.08-2.54,7.85-4.78,12.62-1.13,2.96,2.27,6.09.94,8.6-1.32,11.15-10.03,25-15.1,38.39-21,3.42-1.5,7.05-2.56,11.18-4.04v112.38c-10.39,1.1-20.45,2.16-30.51,3.21-.49.05-1.1.28-1.46.07-5.01-2.82-9.76-.2-14.69.37-4.3.5-8.77-.62-13.16-.5-2.35.06-4.68,1.21-6.99,1.95-.39.13-.71,1.05-.94,1-5.33-1.12-8.93,3.04-13.45,4.36a16.154,16.154,0,0,0-4.1,1.65c-5.44,3.45-11.35,5.03-17.74,5.74-2.2.24-4.64,2.49-6.11,4.47-4.01,5.36-9.61,7.11-15.73,8.16-1.4.24-2.72.92-4.12,1.22a21.693,21.693,0,0,1-5.6.87c-2.56-.12-5.09-1.09-7.65-1.16-7.57-.23-9.27,1.29-9.35,8.43-.11,11.12-.03,22.25-.03,33.08-5.67,1.47-9.91,2.77-14.25,3.64-6.09,1.23-10.59-2.39-14.28-6.25a18.055,18.055,0,0,0-12.12-5.85c-9.24-.88-13.82-5.78-15.02-14.92-.99-7.53-2.28-15.03-3.63-22.51a10.051,10.051,0,0,1,2.64-9.04c4.75-5.51,3.97-10.03-2.25-13.95-4.55-2.87-9.31-5.41-14.76-8.55,1.58-1.29,3.08-2.97,4.94-3.96,8.86-4.76,14.12-11.13,13.95-22.11-.09-5.4,2.17-11.54,8.34-14.41a7.648,7.648,0,0,0,2.52-2.36c3.51-4.51,6.89-9.12,10.44-13.59.78-.98,2.11-2.25,3.13-2.2,6.84.32,10.96-5.08,16.45-7.51,2.54-1.13,4.99-3.13,7.59-3.31,4.95-.34,4.68-2.8,3.18-5.95-1.33-2.8-3.09-5.38-5.17-8.93,1.42-.92,3.37-3.21,4.89-2.95,3.33.57,7.15,1.04,8.12,5.87,1.61,7.97,3.12,8.03,10.92,6.48,3.72-.74,8.47.87,12,2.79,3.48,1.88,4.66,1.7,5.4-2.02q1.86-9.54,3.84-19.06C2391.28,1054.22,2391.71,1053.05,2391.96,1052.16Zm-67.19,2.13c2.07-3.55,3.86-6.82,5.89-9.93.59-.9,1.91-1.32,2.89-1.97.41,1.11,1.32,2.3,1.16,3.31-.87,5.56-.06,11.7-5.42,15.81-.83.64-.85,2.39-1.15,3.65-1.61,6.84-2.26,14.11-5.1,20.39-2.14,4.74-7.07,8.21-10.94,12.43.42-4.28.79-8.14,1.17-12.01.27-.18.58-.57.8-.53,6.64,1.27,8.93-2.92,9.62-8.22C2324.7,1069.39,2326.94,1061.54,2324.77,1054.29Zm-31.92-47.3c-.17,1.16-2.47,2.68-3.92,2.85-8.02.94-15.81,2.26-22.3,7.62a7.529,7.529,0,0,1-2.28.98c-2.73.96-6.83,1.1-7.89,2.98-1.86,3.27-1.86,7.61-2.63,11.5-.32,1.65-.62,3.31-.93,4.97a41.834,41.834,0,0,0-4.75-1.77c-6.41-1.58-11.8-7.45-19.37-4.3-2.87,1.18-5.3-.14-6.26-3.22-.98-3.14,2.14-2.85,3.41-4.18,1.77-1.87,2.27-4.95,3.74-8.55,2.65-.62,8.56,1.2,8.91-5.47.15-2.67-6.24-4.8-12.61-4.44-.68-4.62,2.95-7.61,8.41-6.81a18.637,18.637,0,0,1,3.83,1.12c2.58.97,3.74-.01,4-2.61.29-2.79.7-5.57,1.15-9.01,7.28,2.54,14.13,4.91,20.97,7.33,4.67,1.65,6.96-2.3,9.76-4.45a13.345,13.345,0,0,1,13.45-1.75c1.86.8,4.49-.2,7.12-.41C2294.17,994.61,2293.79,1000.84,2292.85,1006.99Zm-44.26,42.57c-1.19,1.83-1.8,2.86-2.51,3.82-3.41,4.64-6.71,9.06-7.56,15.28-.5,3.68-3.97,6.96-6.1,10.42-.56-.08-1.12-.15-1.68-.23-1.67-8.21-3.34-16.41-4.72-23.23,4.3-2.52,7.12-5.04,10.36-5.86C2239.91,1048.87,2243.84,1049.56,2248.59,1049.56Zm-14.31,35.6c.4-2.61,1.66-5.11,2.69-7.6,1.68-4.06,3.23-8.21,5.29-12.07a110.941,110.941,0,0,1,7.6-12.05c2.14-3,4.8-5.61,3.1-9.81a2.359,2.359,0,0,1,.52-2.21c4.35-2.28,3.5-6.05,3.4-9.91-.17-6.93,1.34-8.4,8.06-10.26a18.077,18.077,0,0,0,5.67-2.99c5.5-4.09,11.83-4.73,19.35-5.33-.72,9.67.28,19.39-2.54,27.85-3.13,9.41-.05,19.81-6.03,28.59-1.85,2.73-.35,6.16,4.01,6.74a8.23,8.23,0,0,1,3.6,1.57c4.21,3.04,8.27,3.05,12.31-.34,3.39,2.36,3.72,4.84,1.48,8.38-1.12,1.76-.64,4.48-1.07,6.72a28.083,28.083,0,0,1-1.78,6.81c-.74,1.57-2.57,2.57-3.69,4-4.44,5.64-9.76,10.49-10.84,18.48-.7,5.17-7.07,8.35-12.22,7.45a20.014,20.014,0,0,0,1.66-2.98c1.63-5.05-.04-7.08-5.12-5.99-7.93,1.71-15.9,3.34-23.66,5.64-1.85.55-3.21,3.47-4.36,5.55-1.8,3.26-3.2,6.51-8.03,5.72-1.26-.2-2.95,1.21-4.2,2.19-1.69,1.32-2.91,3.46-4.76,4.32-2.74,1.27-7.8,3.17-8.46,2.28-2.28-3.07-4.81-7.62-4.1-10.92,2.73-12.64,6.54-25.05,10.34-37.43a8.12,8.12,0,0,1,4.95-4.51C2231.73,1091.83,2233.62,1089.4,2234.28,1085.16Zm214.59,199.27c-6.19-3.09-13.09-4.58-15.95-12.76-1.92-5.48-5.61-11.09-12.65-12.46-1.25-.25-2.1-2.25-3.38-2.69a44.507,44.507,0,0,0-8.04-1.77c-1.5-.21-3.46-.45-4.55.3-2.05,1.42-5,3.43-5.14,5.37-.46,6.18-6.58,6.14-9.41,9.56-.37.44-3.15-.59-4.4-1.49-4.7-3.41-9.25-7.02-13.8-10.62a4.5,4.5,0,0,1-1.79-2.27c-1.4-8.35-8.14-13.33-12.28-19.93a10.5,10.5,0,0,1-1.57-5.47c.23-12.63.62-25.25,1.08-37.88.13-3.67,1.31-5.55,5.91-4.57,11.84,2.52,22.76-.97,33.08-6.61,1.17-.64,1.75-2.34,2.64-3.52,1.7-2.26,3.14-4.82,6.84-3.27.89.37,2.36-.64,3.55-1.02,1.68-.55,3.37-1.05,5.02-1.67,1.74-.66,3.42-1.43,5.13-2.15,2.39-1.01,4.78-2.03,7.17-3.03,1.2-.5,2.39-1.02,3.61-1.41,2.17-.71,4.53-2.19,6.52-1.81,3.97.75,6.42.55,5.5-5.24,9.08,3.56,16.95,3.58,24.67-.19a2.211,2.211,0,0,1,.99.01c6,.31,12,.92,17.99.84,4.29-.06,8.55-1.47,12.83-1.48a15.1,15.1,0,0,1,8.43,2.28c3.68,2.59,7.63,3.22,11.14.38,4.16,4.87,9.33,5.15,14.16,1.4,1.26-.99,3.76-.39,5.68-.51.13.43.25.85.37,1.28-4.93,3.23-9.96,6.33-14.75,9.76-1.56,1.12-2.5,3.08-3.72,4.66,1.57.96,3.37,1.67,4.65,2.93a35.255,35.255,0,0,1,6.21,7.25c4.29,7.55,8.06,9.13,16.45,7.77,6.68-1.08,13.54-1.11,20.33-1.4.81-.03,1.67,1.28,2.85,2.26a37.525,37.525,0,0,1-19.28,11.31c-5.45,1.37-10.84,3.02-16.34,4.15a42.815,42.815,0,0,1-10.81.97c-5.23-.28-9.12,1.55-12.89,5.1-2.07,1.94-5.59,2.24-8.13,3.81a42.387,42.387,0,0,0-7.14,5.84c-3.65,3.56-7.76,6.89-10.46,11.1-3.15,4.9-6.27,10.46-7.07,16.07-.93,6.49-5.11,9.08-9.33,12.43-2.17,1.72-3.83,4.07-5.79,6.07-4.04,4.12-8.11,8.23-12.25,12.26A2.119,2.119,0,0,1,2448.87,1284.43Zm13.15-369.33a4.035,4.035,0,0,0,2.89-.47c6.63-4.95,13.95-2.81,21.12-2.22,4.05.34,8.38-1.23,11.84,2.91,1.01,1.21,4.37.63,6.64.56a31.033,31.033,0,0,0,6.2-.91c1.98-.48,4.27-.83,5.76-2.04,6.13-4.98,15.92-5.17,22.66-1.23,4.75,2.77,10.32,4.18,15.59,6.01.72.25,1.96-.4,2.7-.97,4.17-3.24,6.86-1.76,9.87,2.08,11.87,15.16,24.05,30.08,37.15,46.39-3.34.96-5.55,1.93-7.84,2.18-3.62.39-7.3.32-10.95.41-3.01.08-5.15-1.5-7.75-2.88-5.42-2.87-8.87-8.62-14.38-10.28a36.058,36.058,0,0,0-16.94-.63,114.234,114.234,0,0,1-21.89,2.46c-11.76.15-23.28-3.75-35.28-.74-10.08,2.52-20.71,2.81-31.03,4.48-3.18.51-6.27,2.07-9.19,3.56-4.2,2.14-7.58.76-10.09-2.41-2.79-3.53-5.38-7.52-1.24-11.97,1.95-2.11,3.16-4.91,6.92-4.94,1.12-.01,2.51-2.68,3.26-4.36,1.11-2.48,1.64-5.21,2.63-7.75,1.59-4.07,3.57-7.99,4.99-12.11C2456.77,917.02,2457.7,914.2,2462.02,915.1Zm-6.35-.47c-3.21,6.52-6.46,12.7-9.27,19.06-.96,2.17-.84,4.81-1.25,7.43-8.08,1.04-11.4,8.27-15.87,13.55-1.87,2.21-1.62,7.89-.14,10.91,2.68,5.46.68,8.62-2.99,11.93a8.887,8.887,0,0,0-1.19,2.13c3.63,2.26,8.67,3.71,10.34,6.92,1.59,3.07-.31,7.97-.74,12.75-5.01-3.76-8.07-2.55-10,2.51-.36.94-1.67,1.5-2.51,2.27-3.22,2.94-6.43,5.89-10.03,9.2-2.37-1.25-3.78-9.13-9.99-4.11-2.89,2.33-4.74,5.92-7.16,8.86-3.75,4.56,2.3,6.09,2.74,10.08-8.78,2.88-9.56,9.82-8.82,17.63.1,1.05-.71,2.86-1.53,3.17a5.069,5.069,0,0,1-3.99-.53c-5.52-3.65-10.74-7.78-16.4-11.2-2.89-1.74-3.85-3.6-2.56-6.45,2.82-6.21,1.75-11.93-1.72-17.48-.51-.81-1.41-1.96-1.16-2.55,1.51-3.63-.87-5.34-3.27-6.83-3.95-2.44-7.89-5.07-12.2-6.62-1.41-.51-4.27,1.74-5.86,3.33-1.95,1.96-3.25,4.56-4.38,6.22-4.54-2.8-8.16-5.04-12.57-7.76.32-2.57-1.79-4.58-4.65-4.55,0-4.01.26-7.37-.08-10.67-.27-2.74-1.89-3.36-4.66-2.26-2.4.95-5.15,1.11-7.76,1.47-2.39.33-4.8.48-6.86.68,1.14-8.55,2.26-16.93,3.5-26.22,1.43,2.2,2.73,3.92,3.73,5.8,2.03,3.79,4.91,6.49,9.34,6.38,4.26-.1,4.74,2.46,4.27,5.47-.7,4.44.21,5.78,5.23,5.35,2.72-.23,5.71,3.13,8.63,4.77,1.69.96,3.48,2.36,5.27,2.42a146.981,146.981,0,0,0,15.98-.47,4.47,4.47,0,0,0,3.21-2.33c2.15-5.82,3.99-11.77,5.92-17.62,6.97.15,8.32,2.35,6.42,8.71-.69,2.28-.73,5.89.6,7.32,1.58,1.67,5.11,2.46,7.53,2.06,1.64-.27,3.97-3.23,4-5.02.06-3.79,1.59-4.98,4.8-4.27,4.71,1.05,7.42-1.4,10.02-4.73,3.45-4.42,7.01-8.77,10.79-12.9,2.97-3.25,3.22-6.61,1.9-10.58a80.511,80.511,0,0,1-1.88-8.37c.55-.19,1.09-.38,1.64-.57.56,1.15,1.49,2.26,1.61,3.45.41,4.14,3.1,4.7,6.39,4.36,3.47-.35,5.31-2.21,5.43-5.85.05-1.37.94-2.69,1.17-4.07a82.739,82.739,0,0,0,1.08-8.31c.18-2.64.04-5.3.04-7.95.45.34.9.68,1.36,1.02,4.49-2.5,9.64-4.29,13.33-7.68C2445.8,908.97,2449.9,911.88,2455.67,914.63Zm-142.88,25.08a5.9,5.9,0,0,1,2.05-4.39,46.884,46.884,0,0,1,8.2-5.26c4.5-2.33,8.32-5.14,10.89-9.73.94-1.69,3.25-2.69,5.07-3.79,3.34-2.02,4.72-4.55,4.12-8.7a90.426,90.426,0,0,1-.94-16.6c.2-4.73,1.88-9.07,3.93-13.63,2.37-5.29,1.29-12.66.14-18.83-.84-4.54-1.28-8.39,1.8-13.38,2.02,5.83,6.8,9.8,3.29,16.43-2.19,4.13-.36,6.15,4.07,7.54a15.376,15.376,0,0,1,6.17,4.5c3.26,3.61,15.61,8.32,18.98,6.86,7.32-3.19,7.32-3.19,13.18-2.42,1.73,2.52,3.24,4.55,4.57,6.69.95,1.52,2.26,3.14,2.39,4.8.45,5.93.6,11.89.61,17.84.01,3.48,1.01,5.31,4.8,6.15,5.59,1.24,11.59,1.93,15.83,6.6.21.24.7.58.65.67-2.45,4.83,3.16,10.03-.74,14.91-.99,1.24-.78,3.37-1.5,4.92-.54,1.15-1.59,2.65-2.61,2.83-.93.16-2.41-1.05-3.15-2.03-1.06-1.39-1.33-3.54-2.58-4.59a5.943,5.943,0,0,0-4.55-.73c-.69.14-1.45,2.15-1.37,3.26.22,3.08,1.21,6.14,1.24,9.21.04,2.57-.1,5.67-1.46,7.62a138.339,138.339,0,0,1-11.99,14.5,7.8,7.8,0,0,1-5.4,2.14c-6.51-.21-7.61.65-8.56,6.97-.15,1.05-2.13,2.68-3.09,2.56a6.077,6.077,0,0,1-3.9-2.66c-.49-.76.29-2.5.76-3.7,2.64-6.73-.75-12.35-7.89-12.39-1.58-.01-4.04,1.41-4.61,2.78-2.28,5.53-3.98,11.31-5.87,16.9-5.08.39-10.08.96-15.09,1.06-1.48.03-3.19-.99-4.44-1.98-3.73-2.96-7.25-6.22-12.27-5.47-.51-2.49-.57-5.06-1.62-7.15-.73-1.45-2.82-3.14-4.28-3.12-4.7.06-7.44-1.83-9.02-6.19-.69-1.92-2.24-3.53-3.41-5.3C2312.21,951.37,2313.79,947.67,2312.79,939.71Zm81.97-161.24c2.31,5.05.7,15.42,11.64,8.24,2.17,8.24,4.6,15.79,6.08,23.53,1.84,9.56,9.64,14.31,15.37,20.76.53.58,1.81.78,1.96,1.36.92,3.55.94,7.49,2.54,10.67,2.46,4.93-1.84,6.77-3.79,9.1-2.19,2.62-2.55,5.03-2.58,8.09-.07,6.12-.63,12.22-.79,18.33-.23,8.63,3.68,12.67,12.14,11.98,3.95-.32,5.11.75,5.71,4.64.67,4.34,2.64,8.48,4.18,13.12-5.95.04-10.23,2.89-13.8,6.8-2.53,2.76-9.17,2.91-11.53-.03a4.574,4.574,0,0,0-2.2-1.68c-5-1.12-10.05-2.08-15.65-3.2,0-5.81.47-11.47-.17-16.99-.41-3.59-2.39-7.02-3.79-10.47-.29-.71-1.59-1.15-1.65-1.78-.41-4.81-2.92-6.82-7.61-5.97-3.6.64-7.16,1.46-10.74,2.24-.45.1-.82.57-1.27.71-2.6.77-12.51-3.46-14.84-6.76,11.29.38,12.08-9.25,14.58-16.08,1.19-3.26-2.1-8.4-3.9-12.45-1.07-2.4-1.64-4.07.41-6.21a8.5,8.5,0,0,0,1.84-4.45c.41-2.73,1.19-6.32-2.48-7.05-1.7-.33-3.92,1.92-5.46,2.76-.48-1.45-1.85-3.81-1.88-6.18-.04-2.62,1.06-5.27,1.84-7.86.74-2.44,2.15-4.75,2.47-7.22.76-5.92.96-11.9,1.63-17.83.14-1.21,1.52-3.36,2.01-3.27C2382.65,786.67,2388.3,782.22,2394.76,778.47Zm3.52-53.89c-.77,6.38-.58,13.11-2.63,19.05-2.12,6.13-4.67,12.45-9.88,17.2-2.74,2.49-4.7,5.94-6.63,9.19-2.05,3.45-2.37,7.97-6.83,9.9-.84.36-1.14,2.33-1.38,3.61-.89,4.91-1.9,9.82-2.39,14.77-.58,5.81.5,11.69-3.7,16.99a7.268,7.268,0,0,0,.28,9.3c.88,1.04.22,3.26.75,4.77a37.555,37.555,0,0,0,2.69,5.19c1.23-1.31,2.53-2.56,3.67-3.95a7.466,7.466,0,0,0,.88-2.14c.45.14.91.28,1.36.42-.7,2.07-.94,4.5-2.2,6.15-2.13,2.8-2.33,5.33-.63,8.25.83,1.43,1.43,3.01,2.33,4.39,4.47,6.88-.36,12.48-3.31,17.65-1.2,2.09-6.39,2.4-9.81,2.56-2.28.1-4.64-1.49-6.89-2.29-.16-.42-.47-.85-.36-1.01,3.93-6.1,1.64-11.63-1.48-17.11-1.79-3.15-1.78-6.14-1.09-9.89.93-5.03.26-10.52-.6-15.66-.86-5.07-4.37-9.72-1.03-15.26.57-.94-.9-3.86-2.19-5.02-3.18-2.86-3.37-5.56-.47-8.44,3.1-3.09,2.71-5.25-.25-8.65-3.45-3.96-5.43-9.16-8.23-13.71-1.51-2.45-3.4-4.66-5.71-7.78,4.2-5.76,11.1-1.47,17.17-3.82.55-4.21-.81-8.58-3.15-12.52a109.388,109.388,0,0,0-9.34-13.52c-2.04-2.48-2.3-4.53-1.03-7.2,1.57-3.28,2.65-6.87,4.7-9.8,1.14-1.62,3.79-2.24,5.83-3.16,5.96-2.69,12.02-5.21,17.88-8.1.74-.37,1.24-2.98.7-3.84-1.89-3.04-3.04-5.72-.68-9.14.49-.71-.54-2.77-1.26-3.96a24.265,24.265,0,0,0-2.97-3.45c6.35.28,12.69.57,19.65.88-2.1,5.14-.56,7.12,4.44,8.03,5.65,1.02,6.51,4.42,3.27,9.05a9.538,9.538,0,0,0-1.79,2.96c-.34,1.51-.8,3.69-.04,4.58.95,1.12,3.09,1.67,4.71,1.65a81.6,81.6,0,0,0,9.26-1.2C2399.29,715.77,2398.81,720.18,2398.28,724.58Zm-25.36-63.81c4.22-.78,8.34-2.91,12.13-5.08,5.16-2.97,9.96-6.56,14.92-9.88.28-.18.66-.25.87-.49,8.99-10.57,22.76-11.7,34.34-17.09,9.4-4.38,12.08-12.27,13.52-21.02.5-3.07,1.29-3.61,4-4.13,3.06-.58,5.9-2.24,8.86-3.37,1.49-.57,3.1-.87,4.53-1.55,2.27-1.08,4.76-2.02,6.57-3.66,2.74-2.5,10.26-2.96,13.91-.5a41.78,41.78,0,0,0,5.65,3c2.31,1.08,5.69,1.36,6.86,3.13a46.242,46.242,0,0,1,5.8,13.11c.35,1.28-2.47,3.78-4.25,5.21-11.99,9.63-26.83,11.72-41.07,15.5a11.763,11.763,0,0,0-6.29,4.67,124.151,124.151,0,0,0-9.58,17.48c-2.47,5.74-6.13,9.27-12.34,8.94-5.15-.26-6.97,2.81-8.4,6.68-1.39,3.77-2.65,7.5-6.98,9.09-.88.32-1.43,1.77-1.96,2.79-3.55,6.89-6.97,13.85-10.65,20.68a6.5,6.5,0,0,1-3.65,3.14,112.748,112.748,0,0,1-11.35,1.42c1.67-4.2,4.96-8.45,4.2-11.78-.73-3.23-5.62-5.53-9.61-9.05.11-4.51-1.27-5.9-8.01-6.03-3.16-.06-6.49.59-9.43-.22-2.06-.57-4.83-2.85-5.15-4.73C2359,669.01,2365.05,662.21,2372.92,660.77Zm-67.36,14.88c.82.37,1.22,2.09,1.47,3.26.27,1.27-.17,2.73.24,3.93,1.23,3.6,2.31,7.83,6.99,8.08,4.89.26,4.66-4.26,5.8-7.4.73-2.02,1.71-3.94,2.49-5.94,1.77-4.55,3.99-9.01,5.11-13.73,1.48-6.3,4.79-9.09,10.91-7.52,7.88,2.03,15.69,4.29,23.64,6.48-6.18,5.4-5.85,14.05-4.57,21.06.87,4.78,3.23,9.52,2.99,14.82-.05,1.09,1.28,2.24,2.77,4.65-6.67,2.42-12.9,5.05-19.35,6.93-5.84,1.7-6.48,7.09-8.98,11.13-3.5,5.64-3.43,10.61,1.64,16.01,4.77,5.08,9.15,10.99,9.76,19.27-2.99.15-5.88-.21-8.43.57a21.683,21.683,0,0,0-7.82,4.42c-.79.71-.4,3.76.45,5.12,2.13,3.38,5.11,6.23,7.24,9.61,2.57,4.07,4.62,8.47,7.25,13.41-2.24,4.57-2.42,3.22-8.13,1.84-8.05-1.95-12.35-8.15-18.52-12.1-3-1.93-7.21-1.93-10.84-2.93a7.562,7.562,0,0,1-2.84-1.54c-4.3-3.75-8.53-7.58-13.32-11.85.84-2.93,2.2-6.34-.69-10.94-1.51-2.4-.97-7.06-3.5-10.29-.61-.76.16-3.38,1.1-4.45,3.49-4,3.32-8.59-1.41-10.75-3.64-1.67-3.98-3.7-2.36-6.58,3.54-6.27,4.59-13.97,10.75-18.78a4.26,4.26,0,0,0,1.49-3.04c-.31-8.31,2.36-17.05-3.3-24.65a19.2,19.2,0,0,1-1.05-3.05C2297.63,672.59,2301.68,673.93,2305.56,675.65Zm-34.21,8.55c2.69-1.37,4.9-3.68,7.29-5.59,3.05-2.44,6.07-4.91,9.34-7.56,3.54,4.83,6.48,8.8,6.14,14.48-.39,6.77,1.21,13.63-5.36,19.06-2.7,2.22-3.3,6.98-4.92,10.73-4.13-2.99-7.53-5.91-11.35-8.1-4.9-2.79-5.82-6.84-6.32-12.09C2265.66,689.75,2266.56,686.64,2271.35,684.2Zm-22.21,22.35c.55-1.36,2.01-2.51,2.13-3.84.6-6.79,5.59-8.23,12.02-10.11,0,3.25-.08,5.86.04,8.47.06,1.41-.07,3.47.76,4.11,3.24,2.51,6.92,4.42,10.24,6.83,2.62,1.89,4.95,4.18,7.55,6.42-1.61,4.8-2.41,9.08,4.01,11.24,2.27.76,3.65,3.13.45,5.72-3.06,2.47-2.68,7.46-.17,10.75a11.076,11.076,0,0,1,1.38,3.83,46.8,46.8,0,0,1,1.46,6.36,12.7,12.7,0,0,1-.15,5.5c-1.12,3.3-.73,5.19,2.92,6.46a13.1,13.1,0,0,1,6.37,4.45c3.66,5.58,9.47,6.6,15.06,8.51,2.91.99,6.19,2.34,8.1,4.56,5.12,5.95,12.14,7.91,18.91,10.63.97.39,1.02,2.74,2.02,3.46,5.37,3.84,2.59,9.12,2.92,13.93.18,2.74,1.43,5.43,2.36,8.08,2.72,7.83,2.13,15.15-2.36,22.33a16.722,16.722,0,0,0-1.81,14.8c2.41,7.36,3.5,14.85-2.69,21.37-.83.88-.9,2.73-.89,4.13.06,5.38-1.23,10.05-5.53,13.76-3.39,2.92-6.27,6.45-9.66,9.38-4.2,3.62-7.47,2.47-8.55-2.95-1.06-5.38-2.08-10.69,1.63-15.84.95-1.31-.48-4.33-.82-6.56-1.75.82-3.77,1.33-5.19,2.54-1.56,1.33-2.57,3.3-3.82,5-5.88-4.67-5.98-11.57-.42-15.94,2.59-2.03,2.68-4.11,1.52-6.98-1.07-2.65-1.28-5.64-2.27-8.32-.96-2.61-1.92-5.57-3.81-7.42-3.42-3.35-7.53-6-12.11-9.53,1.34-1.4,2.32-3.29,3.77-3.77,7.77-2.6,11.02-8.77,9.82-17.07-.66-4.59,0-9.48.74-14.12.55-3.47-2.34-11.39-6.03-13.99a11.349,11.349,0,0,0-2.56-1.53c-9.85-3.69-14.46-10.5-13.42-21.22.19-1.96-1.15-4.62-2.64-6.07-4.42-4.27-9.17-8.21-13.98-12.04-1.41-1.12-3.45-1.44-5.59-2.29-.37-9.96.68-10.45-7.7-10.95-1.27-3.09-2.39-5.74-3.45-8.41a7.137,7.137,0,0,1-.45-1.93c-.63-5.39-1.42-10.77-1.73-16.18C2247.42,710.28,2248.41,708.34,2249.14,706.55Zm-9.06,42.59c2-5.48,4.03-11.03,6.05-16.57.43-.08.86-.17,1.3-.25.49,1.61,1.63,3.35,1.34,4.8-.73,3.58.28,5.36,3.91,4.65,4.99-.97,5.73,1.59,5.38,5.61-.19,2.11-.03,4.26-.03,7.12,7.75-2.92,10.41,3.75,14.96,6.76,5.63,3.74,8.28,8.52,7.87,15.8-.48,8.77,6.26,13.03,13.37,16.17,5.22,2.31,7.51,6.61,7.87,11.76.27,3.86-.83,7.8-1.1,11.72a15.383,15.383,0,0,0,.57,5.32c1.56,5.15-1.74,8.63-4.35,12.06-1.65,2.16-5.41.78-6.03-1.9-1.05-4.5-4.73-6.27-8.28-8.12-1.44-.75-3.23-.86-4.62-1.69-2.28-1.35-3.39-.76-4.75,1.41-1.02,1.62-3.01,2.63-4.57,3.92-.43-.13-.85-.25-1.28-.38.85-6.37-3.49-5.49-7.26-5.53-1.04-6.17-2.04-12.13-3.16-18.76,2.11-.15,4.25-.7,6.23-.36,3.38.58,4.05-.92,4.02-3.8-.09-6.59-3.93-11.67-10.23-14.18-1.88-.75-3.21-2.84-4.85-4.25-1.61-1.38-3.27-2.69-4.93-3.99-3.08-2.39-6.19-4.75-9.49-7.28C2247.94,761.95,2248.59,754.09,2240.08,749.14Zm-42.79,51.02c.11-.31.19-.79.4-.86,4.93-1.75,6.52-5.5,8.03-10.35,1.53-4.93,5-9.47,8.39-13.55,4.57-5.49,10.77-8.32,18.08-6.99,1.87.34,3.52,2.21,5.13,3.56,2.27,1.9,4.41,3.95,6.59,5.96,2.32,2.15,4.49,4.48,6.96,6.44a20.6,20.6,0,0,0,5.57,3.07c5.5,2.06,7.83,5.47,7.68,11.3-3.97,1.19-7.85,2.36-10.75,3.23,1.35,6.17,2.81,10.89,3.33,15.71.52,4.84.86,9.06,7.56,6.9.51,2.45.91,4.32,1.46,6.97,2.92-1.18,5.68-1.87,7.97-3.31,5.69-3.57,12.3-1.46,14.59,4.96.5,1.4.99,2.8,1.29,3.65-2.87,3.17-5.19,6.53-8.28,8.88-2.14,1.63-5.64,3.09-8.01,2.51-7.67-1.89-11.55,3.59-16.4,7.27a40.373,40.373,0,0,0-5.19,4.76c-1.63,1.77-3.03,3.75-4.59,5.73-5.3-1.84-8.83-.36-9.99,5.31-.81,3.95-4.19,5.91-5.61,8.89-4.4,9.19-12.19,7.41-19.61,7.48a9.427,9.427,0,0,1-1.99-.02c-4.14-.91-8.68,1.86-12.56-2.31-6.4-6.88-10-14.4-7.93-23.94a4.743,4.743,0,0,1,1.28-2.63c4.1-3.23,4.86-7.69,4.91-12.47.06-4.48,2.16-7.73,5.55-10.63,2.6-2.22,5.28-4.87,6.64-7.91,2.96-6.63,1.37-10.24-4.96-13.99C2199.58,811.86,2196.15,803.41,2197.29,800.16Zm-30.56,56.56c8.22,1.22,9.66-.26,9.49-8.73-.15-6.93-.05-13.98-1.3-20.75-.74-4.04-3.88-7.64-5.46-10.53,7.49-4.74,15.86-10.04,24.42-15.45.8,3.03,1.16,6.06,2.42,8.66a17.6,17.6,0,0,0,5.09,6.41c4.95,3.56,5.98,8.02,2.26,13.05a10.672,10.672,0,0,1-2.75,2.85c-6.4,3.91-8.25,9.98-8.63,16.97a9.548,9.548,0,0,1-1.78,5.39c-5.25,6.25-6.03,18.84-1.17,25.46a81.866,81.866,0,0,0,6.92,8.47,6.714,6.714,0,0,0,4.32,1.62c7.82.16,15.65.09,23.47.05,1.14,0,2.83.15,3.33-.5,4.11-5.24,8.34-10.43,11.79-16.09,1.92-3.15,2.1-7.63,7.39-3.83.57.41,2.97-.4,3.14-1.02,1.1-4.06,3.99-5.98,7.37-8.06,2.94-1.8,4.85-5.21,7.5-7.57,1.25-1.11,3.34-2.27,4.79-2,7.92,1.48,14.04-.83,18.22-8.17,5.04,3.86,9.7,7.32,14.21,10.97a5.977,5.977,0,0,1,1.8,3.31c.85,4.35,1.46,8.76,1.98,12.02-2.18,5.11-5.4,9.65-5.65,14.36-.16,2.92,3.97,6.32,6.73,8.92.45.42,3.88-2.05,5.7-3.48,1.08-.84,1.71-2.25,3.22-3.23-4.42,6.13-3.87,12.67-2.45,19.37,1.61,7.57,7.09,9.84,13.08,4.84,3.91-3.26,7.18-7.29,11.23-11.48,1.15,4.23,2.42,7.6,2.83,11.07.16,1.29-1.45,3.07-2.67,4.17-1.44,1.31-4.02,1.71-4.89,3.22-4.57,7.88-12.22,11.72-19.73,15.81-3.71,2.02-3.78,5.4-2.71,8.67,1.57,4.84-1.44,7.73-4.5,9.73-7.09,4.65-7.24,6.64-6.89,15.06.26,6.2-.42,13.36-6.24,18.12a16.489,16.489,0,0,0-2.36,3.09c-6.59-3.34-13.3-2.38-18.47,2.29-2.99,2.69-5.96,5.11-10.22,1.1-1.72-1.62-5.15-1.37-7.78-2.08-4.42-1.18-8.82-2.44-13.49-3.75-.32,4.26-.62,8.13-.94,12.38a16.381,16.381,0,0,0-14.76,1.59c-1.8,1.05-5.8.83-7.21-.5-2.33-2.19-6.47-3.9-5.08-8.77.52-1.84-.44-4.09-.71-6.16-.29-2.16-.99-4.38-.77-6.49.35-3.48,1.17-6.59-3.75-7.67-1.13-.24-2.18-3.03-2.42-4.76-1.31-9.21-1.97-9.81-10.94-8.55-3.9.55-7.82,1.04-11.72,1.61-5.59.82-10.2-3.75-10.63-9.55a35.9,35.9,0,0,0-3.01-11.18c-1.61-3.77-4.3-7.07-5.99-10.82-.87-1.94-2.4-5.06,2.04-5.52,7.17-.73,7.83-1.72,5.91-10.14,4.77.75,9.13,1.61,13.54,2.01,1.31.12,3.49-.71,4-1.74,2.74-5.58,1.12-15.37-3.02-19.43-3.25-3.17-6.78-6.05-10.01-9.24-4.93-4.9-9.89-9.78-14.44-15.02-1.83-2.1-2.59-5.13-3.82-7.76-.51.84-1.01,1.7-1.52,2.55.49-.87.99-1.74,1.49-2.61l.03.06c1.49-2.54,2.93-4.96,4.09-6.94C2162.37,853.68,2164.38,856.37,2166.73,856.72Zm-30.81,209.04c1.22-7.49,2.81-14.91,4.23-22.37.12-.63.36-1.49.06-1.91-5.64-8.17-1.66-17.56-3.38-26.23-.7-3.57-.36-7.48-1.71-10.74-1.25-3.01-4.12-5.34-6.86-8.68.76-.36,2.48-1.66,4.35-1.96,10.77-1.69,14.24-7.48,9.5-17.11-2.76-5.62-6.36-10.83-9.56-16.24-.81-1.37-1.54-2.78-2.6-4.7,6.07-1.2,7.17-5.27,7.28-10.03a13.876,13.876,0,0,1,.63-3.89c2.54-7.8-.73-13.98-8.64-16.65-1.17-.39-1.97-1.9-2.9-2.94-2.4-2.67-4.77-5.37-7.67-8.64.27-1.16,1.84-4.05,1.22-6.34-.65-2.42-3.25-4.43-5.26-6.35-6.64-6.38-7.17-9.06-2.95-17.12a5.138,5.138,0,0,1,1.16-1.59c6.05-5.13,6.06-5.12,2.83-12.31.33-.27.66-.53.99-.8,1.53,1.9,3.49,3.6,4.49,5.75,1.6,3.45,3.36,4.07,6.48,1.86,3.52-2.49,7.38-4.52,10.8-7.13a5.8,5.8,0,0,0,2.12-4.45c-.77-5.06.6-8.69,5.31-10,4.68-1.3,5.37-3.9,3.59-7.74-2.46-5.29-3.07-11.65-8.83-15.08-.75-.44-1.07-2.06-1.11-3.16-.18-4.64-1.45-8.55-6.7-10.04,1.48-2.27,2.62-4.02,4.35-6.69,1.56,2.28,2.85,4,3.94,5.83.67,1.12.73,2.74,1.6,3.59,5.1,4.98,10.13,10.08,15.65,14.56,3.6,2.91,4.61,8.46,1.3,11.5a18.447,18.447,0,0,0-2.46,3.6,59.306,59.306,0,0,1-4.81,6.93c-2.45,2.68-1.99,4.53.74,6.51a51.326,51.326,0,0,1,5.54,4.78q11.97,11.715,23.86,23.53c2.52,2.51,4.59,5.2,3.46,9.25a41.89,41.89,0,0,0-.88,6.45c-5.05-.38-9.94-1.01-14.83-1.01-2.6,0-4.31,1.59-3.06,4.7.58,1.42.94,2.93,1.55,4.88a12.538,12.538,0,0,0-3.09.2c-2.45.95-6.82,1.93-6.89,3.09a18.7,18.7,0,0,0,2.43,10.1c3.16,5.32,7.77,9.89,7.55,16.65-.31,9.82,6.33,14.95,15.75,12.48a71.2,71.2,0,0,1,13.2-1.8c3.53-.23,3.63,2.75,3.8,5.26.31,4.48.72,8.84,6.15,9.44.59,9.38-.93,18.85,6.36,27.04-2.88,1.5-5.6,2.98-8.37,4.35-1.77.88-3.79,1.36-5.41,2.46-6.26,4.26-6.45,6.69-2.13,12.84,1.62,2.31,2.2,5.33,3.5,7.9a49.389,49.389,0,0,0,3.4,5.08c-.04.25-.01.51-.1.56-9.32,5.49-13.85,14.53-18.63,23.74-3.97,7.64-5.06,14.22,1.3,21.22-2.9,2.04-5.53,3.96-8.25,5.76-4.92,3.28-9.64,3.53-14.73-.18-2.36-1.71-5.68-2.1-8.59-3.05-.45-.15-1.14.15-1.46-.09-3.48-2.75-6.85-5.66-10.4-8.32a7.12,7.12,0,0,0-3.88-1.32C2136.61,1070.92,2135.45,1068.67,2135.92,1065.76Zm5.64,49.48c.6-.78.96-1.87,1.72-2.4,3.56-2.46,6.86-4.83,4.42-10.05-.37-.78,1.15-2.31,1.45-3.57.31-1.31.75-3.21.1-3.95s-2.57-.42-3.93-.46c-1.43-.05-2.85.01-4.28.02.49-1.47.88-2.98,1.48-4.41.63-1.51,1.97-2.92,2.07-4.43s-.55-3.75-1.65-4.47a5.516,5.516,0,0,0-4.9-.03c-1.73,1.04-2.84,3.11-4.21,4.73-2.72-5.76-2.34-6.67,3.09-9a13.653,13.653,0,0,0,3.17-2.4c2.67,1.1,5.08,2.09,7.5,3.08.3.12.85.07.93.25,3.33,8.18,12.58,5.18,18.28,9.73,6.35,5.07,12.97-.47,18.55-4.17,6.21-4.12,5.56-4.2,2.08-10.87a14.4,14.4,0,0,1-.51-10.21,73.966,73.966,0,0,1,7.96-16.03c2.08-3.22,5.55-5.54,8.43-8.23,1.97-1.85,3.98-3.65,5.87-5.37,7.14,5.5,14.54,11.21,21.9,16.88a11.885,11.885,0,0,1-2.46.73c-6.17.85-6.41,1.18-5.24,7.09,1.07,5.37,1.84,10.81,3.16,16.12a33.76,33.76,0,0,0,3.61,8.59c1.95,3.37,1,7.28-2.82,7.57-5.36.41-6.92,3.78-8.1,7.99q-4.485,16.08-9.02,32.16c-.22.78-.54,1.52-1.1,3.1-3.96-1.55-7.78-2.95-11.52-4.53-6.01-2.53-8.88-1-10.81,5.13-.62,1.99-2.87,4.97-4.31,4.94-6.31-.17-9.74,4.43-14.19,7.36-.67.44-1.27,1.01-2.27,1.82-3.28-4.49-7.3-5.67-13.02-5.96-9.4-.48-17.75-4.89-21.03-14.18C2135.33,1123.41,2138.46,1119.33,2141.56,1115.24Zm-34.99,57.68c3.85-.49,5.57-2.74,3.91-6.21-1.64-3.43.01-5.17,2.14-7.24,1.99-1.93,4.32-3.84,5.4-6.26.89-1.98.18-4.69.18-7.45,4.43.19,6.86-3.35,8.43-8.21.62-1.89,2.34-3.43,3.94-5.66,4.83,9.48,13.37,11.73,21.91,13.12,4.43.72,8.67.32,11.25,5.01.32.6,3.17.53,4.3-.15,5.15-3.07,9.17-7.78,15.86-8.6,2.17-.27,4.86-4.18,5.54-6.87,1.03-4.1,3.05-4.18,6.14-3.33.47.13.86.6,1.33.66,11.83,1.65,14.07,11.58,17.6,20.38,2.71,6.77,5.33,13.58,8.04,20.34.84,2.09,1.84,4.11,2.77,6.16l-.93,1.05a17.5,17.5,0,0,1-3.83-1.71c-4.25-3.32-7.4-3.28-10.58.84-1.84,2.38-3.74,3.52-6.76,2.88-3.1-.66-4.61,1.35-6.9,3.27-5.53,4.63-3.61,9.64-1.53,15.93-3.01-.95-4.86-1.35-6.57-2.1-7.26-3.18-11.2-.72-10.84,6.89.24,4.97-.01,10.13,7.2,10.66,1.16.08,2.78,2.47,3.1,4.03,2.09,10.03,5.44,13.62,16.4,16.27-1.5,2.82-2.84,5.57-4.36,8.21-5.01,8.65-2.96,11.84,5.69,16.44a31.327,31.327,0,0,1,3.23,2.33c-6.29,3.86-12.21,3.47-18.41,1.54-6.49-2.03-8.44-5.1-5.88-11.42,1.84-4.55.81-8.17-2.41-11.33-3.01-2.96-6.19-2.55-8.92.65a36.179,36.179,0,0,1-3.36,3.06c-.63-.28-1.26-.55-1.89-.83.44-2.48.45-5.15,1.42-7.4,1.79-4.12.42-6.11-3.17-8.44-7-4.54-14.16-6.9-22.46-4.9-.89.21-1.92-.17-4.26-.43,1.59-3.09,2.5-5.84,4.2-7.94,2.52-3.14,3.98-5.72-.3-8.51-1.05-.67-2.37-2.02-2.35-3.03.07-3.54-2.92-4.26-4.47-6.25-4.12-5.31-9.14-4.76-14.32-4.5-5.1.25-8.52-1.54-10.84-6.17-2.37-4.73-5.23-9.21-8.07-14.15C2104.19,1173.36,2105.37,1173.08,2106.57,1172.92Zm41.71,129.03c-6.13,2.83-11.18-.16-15.92-2.43-1.57-.75-2.12-4.57-2.33-7.05-.4-4.58-.73-8.31-6.74-9.21-2.4-.35-5.15-3.44-6.3-5.95-1.89-4.1-4.12-5.52-8.09-3.37-2.85,1.53-5.2,1.92-7.05-1.38a2.38,2.38,0,0,0-1.71-.92c-9-.32-14.85-7.62-22.79-10.3-1.32-.45-2.27-1.88-3.49-2.72-5.33-3.69-11.05-6.92-15.95-11.11-4.28-3.67-7.62-8.43-11.44-12.64a19.684,19.684,0,0,0-4.43-4.14c-2.08-1.17-4.55-1.68-6.88-2.49,4.17-9.34,9.79-11.57,20.7-8.65,5.17,1.38,9.53-2.41,8.28-7.69a22.043,22.043,0,0,0-4.1-8.14c-2.8-3.61-3.87-8.6-1.37-12.39,3.06-4.66,6.53-9.05,9.88-13.63,4.62,1.63,8.82,4.17,11.97-1.06.21-.34,1.07-.7,1.26-.56,5.71,4.16,10.93-1.05,16.33-.66,1.9.14,4.07,2.4,5.33,4.23,2.43,3.55,4.32,7.48,6.4,11.28,2.13,3.9,5.58,6.22,9.78,5.46,7.23-1.3,12.65,1.75,17.37,6.31,2.34,2.26,3.78,5.52,5.31,8.5.32.63-.76,1.97-1.18,2.98-1.63,3.94-3.25,7.88-5.19,12.56,6.58,0,11.68-.85,16.33.23,4.96,1.15,9.53,4.06,14.17,6.38.42.21.37,1.8.2,2.69-.61,3.21-1.36,6.39-2.25,10.45-.56.23-1.64.65-2.71,1.11-12.6,5.47-14.34,8.1-12.42,21.67.74,5.22,2.87,10.24,4.51,15.85C2144.43,1288.25,2148.57,1295.89,2148.28,1301.95Zm157.44,52.17a75.665,75.665,0,0,1-8.82-5.84,11.911,11.911,0,0,1-3.72-4.9c-1.62-4.47-3.46-7.63-9.26-6.7-2.14.34-4.78-1.61-6.99-2.86-3.15-1.78-6-4.11-9.2-5.8-3.4-1.8-6.76-2-8.9,3.45-5.82-2.58-11.33-5.02-16.84-7.46-1.06-.47-2.13-1.41-3.16-1.37-10.64.47-16.52-6.84-22.84-13.6-6.44-6.89-14.17-10.46-23.59-7.15-1.89.67-3.07,3.38-4.58,5.14.19.39.38.77.56,1.16-4.28,1.29-8.52,2.92-12.75-.33a3.3,3.3,0,0,0-2.89-.24c-6.75,3.52-12.5-.71-18.59-2.25a4.49,4.49,0,0,1-1.67-1.05c-2.8-2.47-2.21-13.55.97-15.43,2.76-1.63,2.75-3.43,2.52-6.55-.58-7.82-6.15-14.7-4.19-22.82.44-1.83,1.54-4.25,3-4.92,5.07-2.33,10.45-3.94,15.66-5.98a25.307,25.307,0,0,0,4.03-2.53c1.27-.81,3.23-2.56,3.73-2.22a15.471,15.471,0,0,1,4.01,4.69c.4.66-.06,1.94-.3,2.89-2.97,11.83-.81,15.55,11.31,17.2,4.51.62,9.29-.53,13.93-1.05,3.63-.4,7.23-1.08,10.84-1.64.96,6.24,9.51,12.3,15.9,10.73,1.87-.46,5.27.2,6.08,1.52,2.69,4.33,6.87,4.05,10.83,4.72,1.88.32,4.64-.18,5.49.9a16.734,16.734,0,0,1,3.5,7.95c.53,4.61,1.77,7.13,7.1,6.45,1.98-.26,4.19,1.31,6.29,2.04.2,9.19,2.99,13.79,11,14.44,6.56.52,7.48,4.14,7.88,9.03.62,7.55,6.12,11.99,13.73,10.64a11.649,11.649,0,0,1,10.4,2.93c2.07,1.79,4.73,2.89,7.11,4.31,4.44,2.64,8.87,5.29,14.11,8.43-8.46,2.81-16.12,5.81-24.05,7.71C2311.22,1358.27,2308.2,1355.58,2305.72,1354.12Zm299.11,39.06c2.77,2.88,4.15,11.81,1.52,14.49-3.56,3.63-3.46,7.93-4.21,12.35-1.92,11.3-4.31,22.53-6.5,33.79q-10.965,56.31-21.91,112.62c-.22,1.12-.56,2.21-.89,3.52a13.264,13.264,0,0,1-9.12-8.38c-1.51-3.69-4.39-7-7.27-9.87-2.68-2.68-6.62-4.1-10.04-1.7-5.51,3.87-9.52.99-14.27-2.35.87-1.48,1.7-3.01,2.65-4.47q16.65-25.77,33.33-51.54c2.76-4.28,2.23-5.56-2.76-7.39-1.07-.39-2.49-.89-2.93-1.75-3.66-7.17-11.45-8.02-17.59-10.19-5.25-1.87-9.4-3.16-12.96-7.98-2.38-3.22-7.59-4.46-11.69-6.21a7.1,7.1,0,0,0-4.87.07c-3.85,1.52-7.57,3.38-11.26,5.26-3.7,1.9-10.4,1.22-13.36-1.53a2.637,2.637,0,0,0-.75-.64q-6.99-2.79-14.01-5.53c-.61-.23-1.34-.15-1.95-.39-1.58-.65-3.65-2.39-4.58-1.9a24.083,24.083,0,0,0-7.77,5.97c-2.32,2.94-4.15,5.69-8.5,5.47a6.06,6.06,0,0,0-4.33,2.07,12.43,12.43,0,0,1-14.16,4.06c-4.08-1.59-8.14-1.84-12.1-3.01-3.66-1.09-6.16-.89-7.17,3.49-4.96-2.63-9.63-3.49-13.18-.07-4.36-2.3-8.09-4.52-12.03-6.27-3.34-1.49-3.59-3.48-1.89-6.26.52-.84,1.59-1.66,1.57-2.47-.13-6.84.86-13.93-3.57-19.98-1.96-2.68-4.32-3.12-7.81-2.58-3.06.47-6.51-1.16-9.71-2.13-1.38-.41-2.57-1.48-4.4-2.58.27-1.65-.02-4.01,1.01-5.35,2.6-3.38.91-5.63-.94-8.39-1.5-2.22-2.29-4.91-3.44-7.37a13.638,13.638,0,0,0-10.66-7.98c-3.2-.52-5.89-.79-7.78-4.09-.89-1.54-4.57-1.54-5.33-3.07-3.19-6.36-9.42-5.33-14.62-7.02-3.14-1.02-5.48-3.11-3.45-7.21.5-1.02.17-3.43-.6-3.93-5.09-3.29-4.26-8.53-5.25-13.67,9.85-3.24,19.37-6.68,29.09-9.44,6.02-1.71,11.47.82,15.67,5.08a7.733,7.733,0,0,0,7.93,2.47c4.38-.83,8.82-2.34,12.38,2.82,2.04,2.95,10.02,1.47,12.97-1.05a5.3,5.3,0,0,1,4.91-.33c6.37,3.91,7.31,3.34,11.4.33,11,7.68,11,7.68,19.49.76,2.37.9,4.54,2.1,6.86,2.5,3.69.63,5.3-.79,6.11-5.01.74-3.82,3.95-7.18,6.16-10.7.31-.5,1.33-.58,1.62-1.09,3.04-5.24,7.3-5.67,12.61-3.86,1.08.37,3.25-1.14,4.32-2.32,5.74-6.32,11.74-12.48,16.76-19.35,3.93-5.39,6.66-5.17,11.13-.85,1.58,1.53,5.19.97,6.74,1.2,3.87,2.19,6.85,4.25,10.13,5.63,2.92,1.23,4.34,2.33,4.85,6.06a27.942,27.942,0,0,0,5.71,12.47c2.36,3.07,5.65,1.01,8.11-1.58,4.24,5.3,14.74.49,15.79,11.03,3.76-.39,7.25-.74,10.42-1.06-.67.9-1.85,2.47-3.04,4.06,4.75,3.19,5.07,5.55,3.11,11.23-.68,1.97.44,4.56.85,7.75-2.67,4.39-1.85,6.82,4.19,9.9a3.405,3.405,0,0,1,1.31,1.3c1.66,2.9,4.3,3.77,6.53,1.54,1.16-1.16.6-4.04.91-6.97.91-.07,2.92-.21,5.42-.38,0,1.88-.32,3.4.1,4.68.35,1.04,1.69,2.62,2.41,2.53,4.11-.51,8.16-1.45,13.31-2.46a21.315,21.315,0,0,1,1.02,4.64c.06,3.59.88,5.67,5.02,3.87a3.174,3.174,0,0,1,2.61-.05C2602.62,1399.77,2603.97,1397.01,2604.83,1393.18Zm-19.37-128.65c5.66-.48,11.47.98,17.23,1.32,2.78.17,5.62-.61,8.38-.38,1.82.15,4.54.87,5.16,2.15,1.84,3.83,2.84,8.05,4.13,12.13.09.27-.2.63-.25.95-.4,2.23-.78,4.46-1.16,6.69-3.36-1.14-7.38-1.5-9.93-3.63-3.16-2.64-5.71-2.47-9.02-1.24-9.28,3.45-18.34,7.62-28.49,8.28-1.31.08-3.44,2.7-3.52,4.22-.63,13.12-1.7,26.32-.78,39.36.31,4.35,5.89,8.44,9.36,12.39,1.44,1.64,3.66,2.6,5.52,3.88a82.458,82.458,0,0,0,7.97,5.44c3.68,1.94,6.33,5.91,4.76,9.6-3.39,7.98,2.29,12.59,5.96,18a12.6,12.6,0,0,0,2.36,2.14c-.85,2.9-1.62,5.5-2.29,7.8-2.17-.35-4.48-.72-7.05-1.14.76-4.1-1.21-7.49-5.64-7.81-3.63-.26-7.38,1.23-11.08,1.94q.57-2.775,1.16-5.58c-10.36-1.87-12.99-1.05-14.72,4.12-1.35-.43-3-.51-3.93-1.37-.97-.9-1.99-3.47-1.68-3.73,3.56-2.97,1.59-5.14-.96-7.34.54-.19,1.08-.38,1.61-.57-.19-4.42-.46-8.84-.54-13.25a29.528,29.528,0,0,1,.66-4.11c.16-1.32.65-3.59.21-3.81-1.43-.69-3.85-1.42-4.77-.7-4,3.14-7.03,3.97-9.58-1.58-.49-1.08-2.43-1.59-3.78-2.15-3.75-1.57-7.46-3.42-11.37-4.38-1.83-.44-4.09.93-7.32,1.78-1.25-2.73-3.72-6.27-4.43-10.13-.86-4.64-3.06-7.77-7.73-8.97-1.97-.5-3.5-2.5-5.38-3.56a26.489,26.489,0,0,0-5.6-2.36c-1.64-.48-3.5-.2-5.11-.73-2.83-.94-5.46-2.89-8.33-3.27a26.924,26.924,0,0,1-18.69-10.6c-.95-1.23-2.81-1.77-3.77-3-1.83-2.36-5.1-4.01-4.38-7.88.08-.41-.74-1.05-1.23-1.49-1.44-1.31-4.35-3.06-4.11-3.78.72-2.19,2.63-4,4.13-5.91,3.01-3.82,6-7.66,9.14-11.38a14.358,14.358,0,0,1,3.18-2.2c5.47-3.65,10.42-6.92,11.49-14.86.81-5.97,2.44-12.91,9.18-16.75,2.96-1.68,4.8-5.4,7-8.31,3.12-4.15,6.84-7.08,12.3-7.35a4.157,4.157,0,0,0,2.82-1.64c2.85-4.2,6.81-5.05,11.64-5.24,5.21-.21,10.42-1.44,15.55-2.58,7.23-1.61,14.39-3.54,21.72-5.37-.07-.13.29.22.22.4-3.31,8.55.99,15.63,10.36,16.99,7.91,1.14,8.53,1.83,8.53,9.66,0,8.66.06,17.32-.03,25.98C2580.5,1263.1,2580.73,1264.93,2585.46,1264.53Zm162.12-10.32c.26-4.36.16-8.62.84-12.76,1.68-10.2-1.99-18.41-8.34-26.05-2.17-2.61-3.37-6.04-4.91-9.15-3.81-7.67-8.99-9.48-16.08-4.84-3.64,2.38-6.72,5.69-9.78,8.85-2.31,2.37-3.95,5.39-6.29,7.71-5.58,5.53-11.45,4.18-14.41-3.08-.51-1.23-.7-2.91-1.62-3.56-1.75-1.25-3.97-2.69-5.91-2.58a6.27,6.27,0,0,0-4.49,3.6c-.95,3.01-.82,6.38-1.21,10.3h-4c-19.3,0-38.61.06-57.91-.07-2.57-.02-5.11-1.27-7.7-1.44a37.326,37.326,0,0,0-9.97.24c-10.88,2.26-21.46,3.57-30.76-4.59-2.21-1.94-3.04-3.81-1.19-6.42,1.89-2.68-.22-6.87,3.99-8.96,2.97-1.48,5.22-4.41,8.26-7.11-4.16-2.16-6.9-5.26-12.24-3.94-4.93,1.22-10.36.42-15.56.54a8.819,8.819,0,0,0-2.41.33c-5.96,1.9-9.64.3-12.38-5.45-3.24-6.81-4.71-8.37-10.97-10.86,8.94-4.91,17.32-9.15,25.29-14.06,3.54-2.19,6.8-5,7.25-10.16.42-4.7-.37-10.63,6.83-12.13,1.12-.23,1.28-4.03,2.32-5.94.99-1.8,2.78-4.78,3.83-4.63,4.82.71,6.79-3.23,10.07-4.98,3.89-2.07,8.2-3.34,12.32-4.96,1.39-.55,3.05-.81,4.09-1.75,8.64-7.77,8.61-7.81,19.04-3.84.87-.96,1.82-2,2.89-3.16,5.1,5.64,10.53,2.28,15.81,1.02,7.27-1.73,14.42-4.17,21.78-5.21,5.91-.84,9.42-4.62,13.1-8.22,4.96-4.85,10.26-5.28,16.29-2.89.59.24,1.53.77,1.77.56,3.79-3.33,5.97-1.41,8.28,1.97.43.64,3.38.21,4.69-.56a95.965,95.965,0,0,0,8.43-6.15c1.83,4.78,3.12,8.96,5.04,12.82.94,1.88,2.98,4.38,4.67,4.5,4.79.33,5.57,3.83,7.27,6.99a56.779,56.779,0,0,0,5.83,8.87c2.16,2.66.7,6.49-3.1,9.5-9.07,7.2-18.07,14.51-26.62,22.3-1.67,1.52-1.25,5.41-1.57,8.24-.03.28,2.03,1.25,2.21,1.06,4-4.33,8.31-.67,10.45-.68,5.46,4.92,9.78,8.75,14.04,12.65,4.33,3.97,8.59,8.01,13.1,12.22-2.39,5.93-1.54,9.22,3.7,13.94.8.72,1.6,2.65,1.21,3.3-2.17,3.64.2,6.07,1.52,9.12,3.94,9.06,8.95,17.83,9.17,28.13a5.984,5.984,0,0,0,.46,1.92C2757,1252.82,2757,1252.82,2747.58,1254.21Z" fill="#fff"/>
    <path id="Path_6975" data-name="Path 6975" d="M2334.71,1045.7c-.87,5.56-.06,11.7-5.42,15.81-.83.64-.85,2.39-1.15,3.65-1.61,6.84-2.26,14.11-5.1,20.39-2.14,4.74-7.07,8.21-10.94,12.43.42-4.28.79-8.14,1.17-12.01.27-.18.58-.57.8-.53,6.64,1.27,8.93-2.92,9.62-8.22,1.01-7.83,3.25-15.68,1.08-22.93,2.07-3.55,3.86-6.82,5.89-9.93.59-.9,1.91-1.32,2.89-1.97C2333.96,1043.5,2334.87,1044.69,2334.71,1045.7Z" fill="#e6e6e6"/>
    <path id="Path_6976" data-name="Path 6976" d="M2747.58,1254.21c.26-4.36.16-8.62.84-12.76,1.68-10.2-1.99-18.41-8.34-26.05-2.17-2.61-3.37-6.04-4.91-9.15-3.81-7.67-8.99-9.48-16.08-4.84-3.64,2.38-6.72,5.69-9.78,8.85-2.31,2.37-3.95,5.39-6.29,7.71-5.58,5.53-11.45,4.18-14.41-3.08-.51-1.23-.7-2.91-1.62-3.56-1.75-1.25-3.97-2.69-5.91-2.58a6.27,6.27,0,0,0-4.49,3.6c-.95,3.01-.82,6.38-1.21,10.3h-4c-19.3,0-38.61.06-57.91-.07-2.57-.02-5.11-1.27-7.7-1.44a37.326,37.326,0,0,0-9.97.24c-10.88,2.26-21.46,3.57-30.76-4.59-2.21-1.94-3.04-3.81-1.19-6.42,1.89-2.68-.22-6.87,3.99-8.96,2.97-1.48,5.22-4.41,8.26-7.11-4.16-2.16-6.9-5.26-12.24-3.94-4.93,1.22-10.36.42-15.56.54a8.819,8.819,0,0,0-2.41.33c-5.96,1.9-9.64.3-12.38-5.45-3.24-6.81-4.71-8.37-10.97-10.86,8.94-4.91,17.32-9.15,25.29-14.06,3.54-2.19,6.8-5,7.25-10.16.42-4.7-.37-10.63,6.83-12.13,1.12-.23,1.28-4.03,2.32-5.94.99-1.8,2.78-4.78,3.83-4.63,4.82.71,6.79-3.23,10.07-4.98,3.89-2.07,8.2-3.34,12.32-4.96,1.39-.55,3.05-.81,4.09-1.75,8.64-7.77,8.61-7.81,19.04-3.84.87-.96,1.82-2,2.89-3.16,5.1,5.64,10.53,2.28,15.81,1.02,7.27-1.73,14.42-4.17,21.78-5.21,5.91-.84,9.42-4.62,13.1-8.22,4.96-4.85,10.26-5.28,16.29-2.89.59.24,1.53.77,1.77.56,3.79-3.33,5.97-1.41,8.28,1.97.43.64,3.38.21,4.69-.56a95.965,95.965,0,0,0,8.43-6.15c1.83,4.78,3.12,8.96,5.04,12.82.94,1.88,2.98,4.38,4.67,4.5,4.79.33,5.57,3.83,7.27,6.99a56.779,56.779,0,0,0,5.83,8.87c2.16,2.66.7,6.49-3.1,9.5-9.07,7.2-18.07,14.51-26.62,22.3-1.67,1.52-1.25,5.41-1.57,8.24-.03.28,2.03,1.25,2.21,1.06,4-4.33,8.31-.67,10.45-.68,5.46,4.92,9.78,8.75,14.04,12.65,4.33,3.97,8.59,8.01,13.1,12.22-2.39,5.93-1.54,9.22,3.7,13.94.8.72,1.6,2.65,1.21,3.3-2.17,3.64.2,6.07,1.52,9.12,3.94,9.06,8.95,17.83,9.17,28.13a5.984,5.984,0,0,0,.46,1.92C2757,1252.82,2757,1252.82,2747.58,1254.21Z" fill="#e6e6e6"/>
    <path id="Path_6977" data-name="Path 6977" d="M2620.11,1280.7c-.4,2.23-.78,4.46-1.16,6.69-3.36-1.14-7.38-1.5-9.93-3.63-3.16-2.64-5.71-2.47-9.02-1.24-9.28,3.45-18.34,7.62-28.49,8.28-1.31.08-3.44,2.7-3.52,4.22-.63,13.12-1.7,26.32-.78,39.36.31,4.35,5.89,8.44,9.36,12.39,1.44,1.64,3.66,2.6,5.52,3.88a82.458,82.458,0,0,0,7.97,5.44c3.68,1.94,6.33,5.91,4.76,9.6-3.39,7.98,2.29,12.59,5.96,18a12.6,12.6,0,0,0,2.36,2.14c-.85,2.9-1.62,5.5-2.29,7.8-2.17-.35-4.48-.72-7.05-1.14.76-4.1-1.21-7.49-5.64-7.81-3.63-.26-7.38,1.23-11.08,1.94q.57-2.775,1.16-5.58c-10.36-1.87-12.99-1.05-14.72,4.12-1.35-.43-3-.51-3.93-1.37-.97-.9-1.99-3.47-1.68-3.73,3.56-2.97,1.59-5.14-.96-7.34.54-.19,1.08-.38,1.61-.57-.19-4.42-.46-8.84-.54-13.25a29.528,29.528,0,0,1,.66-4.11c.16-1.32.65-3.59.21-3.81-1.43-.69-3.85-1.42-4.77-.7-4,3.14-7.03,3.97-9.58-1.58-.49-1.08-2.43-1.59-3.78-2.15-3.75-1.57-7.46-3.42-11.37-4.38-1.83-.44-4.09.93-7.32,1.78-1.25-2.73-3.72-6.27-4.43-10.13-.86-4.64-3.06-7.77-7.73-8.97-1.97-.5-3.5-2.5-5.38-3.56a26.489,26.489,0,0,0-5.6-2.36c-1.64-.48-3.5-.2-5.11-.73-2.83-.94-5.46-2.89-8.33-3.27a26.924,26.924,0,0,1-18.69-10.6c-.95-1.23-2.81-1.77-3.77-3-1.83-2.36-5.1-4.01-4.38-7.88.08-.41-.74-1.05-1.23-1.49-1.44-1.31-4.35-3.06-4.11-3.78.72-2.19,2.63-4,4.13-5.91,3.01-3.82,6-7.66,9.14-11.38a14.358,14.358,0,0,1,3.18-2.2c5.47-3.65,10.42-6.92,11.49-14.86.81-5.97,2.44-12.91,9.18-16.75,2.96-1.68,4.8-5.4,7-8.31,3.12-4.15,6.84-7.08,12.3-7.35a4.157,4.157,0,0,0,2.82-1.64c2.85-4.2,6.81-5.05,11.64-5.24,5.21-.21,10.42-1.44,15.55-2.58,7.23-1.61,14.39-3.54,21.72-5.37-.07-.13.29.22.22.4-3.31,8.55.99,15.63,10.36,16.99,7.91,1.14,8.53,1.83,8.53,9.66,0,8.66.06,17.32-.03,25.98-.04,3.48.19,5.31,4.92,4.91,5.66-.48,11.47.98,17.23,1.32,2.78.17,5.62-.61,8.38-.38,1.82.15,4.54.87,5.16,2.15,1.84,3.83,2.84,8.05,4.13,12.13C2620.45,1280.02,2620.16,1280.38,2620.11,1280.7Z" fill="#e6e6e6"/>
    <path id="Path_6978" data-name="Path 6978" d="M2606.35,1407.67c-3.56,3.63-3.46,7.93-4.21,12.35-1.92,11.3-4.31,22.53-6.5,33.79q-10.965,56.31-21.91,112.62c-.22,1.12-.56,2.21-.89,3.52a13.264,13.264,0,0,1-9.12-8.38c-1.51-3.69-4.39-7-7.27-9.87-2.68-2.68-6.62-4.1-10.04-1.7-5.51,3.87-9.52.99-14.27-2.35.87-1.48,1.7-3.01,2.65-4.47q16.65-25.77,33.33-51.54c2.76-4.28,2.23-5.56-2.76-7.39-1.07-.39-2.49-.89-2.93-1.75-3.66-7.17-11.45-8.02-17.59-10.19-5.25-1.87-9.4-3.16-12.96-7.98-2.38-3.22-7.59-4.46-11.69-6.21a7.1,7.1,0,0,0-4.87.07c-3.85,1.52-7.57,3.38-11.26,5.26-3.7,1.9-10.4,1.22-13.36-1.53a2.637,2.637,0,0,0-.75-.64q-6.99-2.79-14.01-5.53c-.61-.23-1.34-.15-1.95-.39-1.58-.65-3.65-2.39-4.58-1.9a24.083,24.083,0,0,0-7.77,5.97c-2.32,2.94-4.15,5.69-8.5,5.47a6.06,6.06,0,0,0-4.33,2.07,12.43,12.43,0,0,1-14.16,4.06c-4.08-1.59-8.14-1.84-12.1-3.01-3.66-1.09-6.16-.89-7.17,3.49-4.96-2.63-9.63-3.49-13.18-.07-4.36-2.3-8.09-4.52-12.03-6.27-3.34-1.49-3.59-3.48-1.89-6.26.52-.84,1.59-1.66,1.57-2.47-.13-6.84.86-13.93-3.57-19.98-1.96-2.68-4.32-3.12-7.81-2.58-3.06.47-6.51-1.16-9.71-2.13-1.38-.41-2.57-1.48-4.4-2.58.27-1.65-.02-4.01,1.01-5.35,2.6-3.38.91-5.63-.94-8.39-1.5-2.22-2.29-4.91-3.44-7.37a13.638,13.638,0,0,0-10.66-7.98c-3.2-.52-5.89-.79-7.78-4.09-.89-1.54-4.57-1.54-5.33-3.07-3.19-6.36-9.42-5.33-14.62-7.02-3.14-1.02-5.48-3.11-3.45-7.21.5-1.02.17-3.43-.6-3.93-5.09-3.29-4.26-8.53-5.25-13.67,9.85-3.24,19.37-6.68,29.09-9.44,6.02-1.71,11.47.82,15.67,5.08a7.733,7.733,0,0,0,7.93,2.47c4.38-.83,8.82-2.34,12.38,2.82,2.04,2.95,10.02,1.47,12.97-1.05a5.3,5.3,0,0,1,4.91-.33c6.37,3.91,7.31,3.34,11.4.33,11,7.68,11,7.68,19.49.76,2.37.9,4.54,2.1,6.86,2.5,3.69.63,5.3-.79,6.11-5.01.74-3.82,3.95-7.18,6.16-10.7.31-.5,1.33-.58,1.62-1.09,3.04-5.24,7.3-5.67,12.61-3.86,1.08.37,3.25-1.14,4.32-2.32,5.74-6.32,11.74-12.48,16.76-19.35,3.93-5.39,6.66-5.17,11.13-.85,1.58,1.53,5.19.97,6.74,1.2,3.87,2.19,6.85,4.25,10.13,5.63,2.92,1.23,4.34,2.33,4.85,6.06a27.942,27.942,0,0,0,5.71,12.47c2.36,3.07,5.65,1.01,8.11-1.58,4.24,5.3,14.74.49,15.79,11.03,3.76-.39,7.25-.74,10.42-1.06-.67.9-1.85,2.47-3.04,4.06,4.75,3.19,5.07,5.55,3.11,11.23-.68,1.97.44,4.56.85,7.75-2.67,4.39-1.85,6.82,4.19,9.9a3.405,3.405,0,0,1,1.31,1.3c1.66,2.9,4.3,3.77,6.53,1.54,1.16-1.16.6-4.04.91-6.97.91-.07,2.92-.21,5.42-.38,0,1.88-.32,3.4.1,4.68.35,1.04,1.69,2.62,2.41,2.53,4.11-.51,8.16-1.45,13.31-2.46a21.315,21.315,0,0,1,1.02,4.64c.06,3.59.88,5.67,5.02,3.87a3.174,3.174,0,0,1,2.61-.05c4.41,3.33,5.76.57,6.62-3.26C2607.6,1396.06,2608.98,1404.99,2606.35,1407.67Z" fill="#e6e6e6"/>
    <path id="Path_6979" data-name="Path 6979" d="M2570.24,1195.26a37.525,37.525,0,0,1-19.28,11.31c-5.45,1.37-10.84,3.02-16.34,4.15a42.815,42.815,0,0,1-10.81.97c-5.23-.28-9.12,1.55-12.89,5.1-2.07,1.94-5.59,2.24-8.13,3.81a42.387,42.387,0,0,0-7.14,5.84c-3.65,3.56-7.76,6.89-10.46,11.1-3.15,4.9-6.27,10.46-7.07,16.07-.93,6.49-5.11,9.08-9.33,12.43-2.17,1.72-3.83,4.07-5.79,6.07-4.04,4.12-8.11,8.23-12.25,12.26a2.119,2.119,0,0,1-1.88.06c-6.19-3.09-13.09-4.58-15.95-12.76-1.92-5.48-5.61-11.09-12.65-12.46-1.25-.25-2.1-2.25-3.38-2.69a44.507,44.507,0,0,0-8.04-1.77c-1.5-.21-3.46-.45-4.55.3-2.05,1.42-5,3.43-5.14,5.37-.46,6.18-6.58,6.14-9.41,9.56-.37.44-3.15-.59-4.4-1.49-4.7-3.41-9.25-7.02-13.8-10.62a4.5,4.5,0,0,1-1.79-2.27c-1.4-8.35-8.14-13.33-12.28-19.93a10.5,10.5,0,0,1-1.57-5.47c.23-12.63.62-25.25,1.08-37.88.13-3.67,1.31-5.55,5.91-4.57,11.84,2.52,22.76-.97,33.08-6.61,1.17-.64,1.75-2.34,2.64-3.52,1.7-2.26,3.14-4.82,6.84-3.27.89.37,2.36-.64,3.55-1.02,1.68-.55,3.37-1.05,5.02-1.67,1.74-.66,3.42-1.43,5.13-2.15,2.39-1.01,4.78-2.03,7.17-3.03,1.2-.5,2.39-1.02,3.61-1.41,2.17-.71,4.53-2.19,6.52-1.81,3.97.75,6.42.55,5.5-5.24,9.08,3.56,16.95,3.58,24.67-.19a2.211,2.211,0,0,1,.99.01c6,.31,12,.92,17.99.84,4.29-.06,8.55-1.47,12.83-1.48a15.1,15.1,0,0,1,8.43,2.28c3.68,2.59,7.63,3.22,11.14.38,4.16,4.87,9.33,5.15,14.16,1.4,1.26-.99,3.76-.39,5.68-.51.13.43.25.85.37,1.28-4.93,3.23-9.96,6.33-14.75,9.76-1.56,1.12-2.5,3.08-3.72,4.66,1.57.96,3.37,1.67,4.65,2.93a35.255,35.255,0,0,1,6.21,7.25c4.29,7.55,8.06,9.13,16.45,7.77,6.68-1.08,13.54-1.11,20.33-1.4C2568.2,1192.97,2569.06,1194.28,2570.24,1195.26Z" fill="#e6e6e6"/>
    <path id="Path_6980" data-name="Path 6980" d="M2480.65,1318.23c-3.73,4.1-7.45,8.21-11.2,12.31-.89.97-2.2,1.72-2.72,2.84-2.6,5.55-6.15,8.39-12.77,6.49-1.59-.46-4.11,1.74-5.99,3.02-2.15,1.47-4.62,2.93-5.96,5.02-2.54,3.94-4.37,8.34-6.92,13.38-.58-.15-2.77-.03-3.72-1.06-3.14-3.38-5.39-1.86-7.96.58-5.36,5.08-5.41,5.04-11.09-.06-2.44-2.19-4.63-4.27-8.17-1.32-.95.78-3.91.27-5.16-.68-3.88-2.94-6.81-3.76-10.71.44-1.29,1.38-6.57,1.22-8.14-.25-4.3-4.02-8.77-4.14-13.76-2.79-2.71.74-4.2-.21-6.46-1.91-3.8-2.86-7.29-6.33-13.4-5.89a18.357,18.357,0,0,1-14.88-5.59c-1.67-1.81-4.63-2.4-6.94-3.66-4.55-2.49-8.97-5.27-13.65-7.49-1.59-.75-3.85-.42-5.73-.15-6.13.9-9.81-2.16-9.93-8.48-.13-7.86-1.37-8.97-9.52-10.6-8.01-1.59-9.71-4.24-9.06-10.79.31-3.12-6.16-7.91-9.75-6.73s-3.88-.64-4.53-3.14c-.81-3.1-1.57-6.35-3.14-9.08-.77-1.33-3.3-2.17-5.09-2.29-4.84-.32-9.16-.85-12.99-4.69-1.77-1.77-5.71-1.91-8.65-1.84-5.41.13-9.39-2.42-11.33-7.57-.52-1.37-2.7-3.36-3.62-3.13-6.24,1.6-8.81-4.12-13.16-6.16-7.09-3.34-4.18-7.91-1.3-12.42a14.2,14.2,0,0,0,1.38-2.65c1.67-4.55,4.24-7.2,9.75-6.94,2.25.11,5.2-1.94,6.85-3.86,4.84-5.66,8.2-13.11,14-17.26,5.75-4.12,7.84-9.77,10.84-15.09a38.869,38.869,0,0,1,9.96-11.39c2-1.62,2.33-5.29,3.45-8.03.86-2.12,2.12-2.88,4.58-3.86,4.71-1.89,8.49-6.16,12.57-9.54.29-.23.18-1.47-.17-1.86-4.01-4.53-.44-8.17,2.55-9.74,2.26-1.19,6.24.78,9.42,1.51.73.16,1.3.99,1.96,1.5,8.49,6.61,8.46,6.58,2.58,15.24a6.416,6.416,0,0,0-1.18,4.02c1.32,10.33,2.57,20.68,4.41,30.93,1.24,6.9,9.23,12.83,17.01,13.11a12.975,12.975,0,0,1,9.51,4.34c6.3,6.42,13.47,10.7,22.98,6.14,1.81-.87,4.17-.61,6.27-.88-.23.54-.46,1.07-.69,1.61,3.41,4.69,6.79,9.4,10.24,14.06.97,1.31,2.93,2.39,3.08,3.72,1.05,9.6,9.27,13.19,15.24,18.63a29.245,29.245,0,0,0,4.91,3.37c3.53,2.11,6.79,2.25,9.79-1.19,1.15-1.32,3-2,4.35-3.19a15.683,15.683,0,0,0,3.09-3.61,52.036,52.036,0,0,0,2.45-5.3c3.57,1.81,7.87-3.73,11.32,1.26,1.01,1.45,3.32,2,5.05,2.93,2.83,1.52,5.06,2.89,6.62,6.51,2.41,5.56,6.54,10.62,10.83,15.03,2.07,2.13,6.26,2.07,9.29,3.46,1.28.59,2.03,2.36,3.03,3.58,1.23,1.52,2.46,3.03,3.57,4.39,2.92,3.85,5.07,8.1,8.45,10.82C2468.14,1310.78,2474.49,1314.25,2480.65,1318.23Z" fill="#e6e6e6"/>
    <path id="Path_6981" data-name="Path 6981" d="M2337.41,1350.05c-8.46,2.81-16.12,5.81-24.05,7.71-2.14.51-5.16-2.18-7.64-3.64a75.665,75.665,0,0,1-8.82-5.84,11.911,11.911,0,0,1-3.72-4.9c-1.62-4.47-3.46-7.63-9.26-6.7-2.14.34-4.78-1.61-6.99-2.86-3.15-1.78-6-4.11-9.2-5.8-3.4-1.8-6.76-2-8.9,3.45-5.82-2.58-11.33-5.02-16.84-7.46-1.06-.47-2.13-1.41-3.16-1.37-10.64.47-16.52-6.84-22.84-13.6-6.44-6.89-14.17-10.46-23.59-7.15-1.89.67-3.07,3.38-4.58,5.14.19.39.38.77.56,1.16-4.28,1.29-8.52,2.92-12.75-.33a3.3,3.3,0,0,0-2.89-.24c-6.75,3.52-12.5-.71-18.59-2.25a4.49,4.49,0,0,1-1.67-1.05c-2.8-2.47-2.21-13.55.97-15.43,2.76-1.63,2.75-3.43,2.52-6.55-.58-7.82-6.15-14.7-4.19-22.82.44-1.83,1.54-4.25,3-4.92,5.07-2.33,10.45-3.94,15.66-5.98a25.307,25.307,0,0,0,4.03-2.53c1.27-.81,3.23-2.56,3.73-2.22a15.471,15.471,0,0,1,4.01,4.69c.4.66-.06,1.94-.3,2.89-2.97,11.83-.81,15.55,11.31,17.2,4.51.62,9.29-.53,13.93-1.05,3.63-.4,7.23-1.08,10.84-1.64.96,6.24,9.51,12.3,15.9,10.73,1.87-.46,5.27.2,6.08,1.52,2.69,4.33,6.87,4.05,10.83,4.72,1.88.32,4.64-.18,5.49.9a16.734,16.734,0,0,1,3.5,7.95c.53,4.61,1.77,7.13,7.1,6.45,1.98-.26,4.19,1.31,6.29,2.04.2,9.19,2.99,13.79,11,14.44,6.56.52,7.48,4.14,7.88,9.03.62,7.55,6.12,11.99,13.73,10.64a11.649,11.649,0,0,1,10.4,2.93c2.07,1.79,4.73,2.89,7.11,4.31C2327.74,1344.26,2332.17,1346.91,2337.41,1350.05Z" fill="#e6e6e6"/>
    <path id="Path_6982" data-name="Path 6982" d="M2166.63,1236.08c-.61,3.21-1.36,6.39-2.25,10.45-.56.23-1.64.65-2.71,1.11-12.6,5.47-14.34,8.1-12.42,21.67.74,5.22,2.87,10.24,4.51,15.85-9.33,3.09-5.19,10.73-5.48,16.79-6.13,2.83-11.18-.16-15.92-2.43-1.57-.75-2.12-4.57-2.33-7.05-.4-4.58-.73-8.31-6.74-9.21-2.4-.35-5.15-3.44-6.3-5.95-1.89-4.1-4.12-5.52-8.09-3.37-2.85,1.53-5.2,1.92-7.05-1.38a2.38,2.38,0,0,0-1.71-.92c-9-.32-14.85-7.62-22.79-10.3-1.32-.45-2.27-1.88-3.49-2.72-5.33-3.69-11.05-6.92-15.95-11.11-4.28-3.67-7.62-8.43-11.44-12.64a19.684,19.684,0,0,0-4.43-4.14c-2.08-1.17-4.55-1.68-6.88-2.49,4.17-9.34,9.79-11.57,20.7-8.65,5.17,1.38,9.53-2.41,8.28-7.69a22.043,22.043,0,0,0-4.1-8.14c-2.8-3.61-3.87-8.6-1.37-12.39,3.06-4.66,6.53-9.05,9.88-13.63,4.62,1.63,8.82,4.17,11.97-1.06.21-.34,1.07-.7,1.26-.56,5.71,4.16,10.93-1.05,16.33-.66,1.9.14,4.07,2.4,5.33,4.23,2.43,3.55,4.32,7.48,6.4,11.28,2.13,3.9,5.58,6.22,9.78,5.46,7.23-1.3,12.65,1.75,17.37,6.31,2.34,2.26,3.78,5.52,5.31,8.5.32.63-.76,1.97-1.18,2.98-1.63,3.94-3.25,7.88-5.19,12.56,6.58,0,11.68-.85,16.33.23,4.96,1.15,9.53,4.06,14.17,6.38C2166.85,1233.6,2166.8,1235.19,2166.63,1236.08Z" fill="#e6e6e6"/>
    <path id="Path_6983" data-name="Path 6983" d="M2225.31,1178.61l-.93,1.05a17.5,17.5,0,0,1-3.83-1.71c-4.25-3.32-7.4-3.28-10.58.84-1.84,2.38-3.74,3.52-6.76,2.88-3.1-.66-4.61,1.35-6.9,3.27-5.53,4.63-3.61,9.64-1.53,15.93-3.01-.95-4.86-1.35-6.57-2.1-7.26-3.18-11.2-.72-10.84,6.89.24,4.97-.01,10.13,7.2,10.66,1.16.08,2.78,2.47,3.1,4.03,2.09,10.03,5.44,13.62,16.4,16.27-1.5,2.82-2.84,5.57-4.36,8.21-5.01,8.65-2.96,11.84,5.69,16.44a31.327,31.327,0,0,1,3.23,2.33c-6.29,3.86-12.21,3.47-18.41,1.54-6.49-2.03-8.44-5.1-5.88-11.42,1.84-4.55.81-8.17-2.41-11.33-3.01-2.96-6.19-2.55-8.92.65a36.179,36.179,0,0,1-3.36,3.06c-.63-.28-1.26-.55-1.89-.83.44-2.48.45-5.15,1.42-7.4,1.79-4.12.42-6.11-3.17-8.44-7-4.54-14.16-6.9-22.46-4.9-.89.21-1.92-.17-4.26-.43,1.59-3.09,2.5-5.84,4.2-7.94,2.52-3.14,3.98-5.72-.3-8.51-1.05-.67-2.37-2.02-2.35-3.03.07-3.54-2.92-4.26-4.47-6.25-4.12-5.31-9.14-4.76-14.32-4.5-5.1.25-8.52-1.54-10.84-6.17-2.37-4.73-5.23-9.21-8.07-14.15,1.05-.19,2.23-.47,3.43-.63,3.85-.49,5.57-2.74,3.91-6.21-1.64-3.43.01-5.17,2.14-7.24,1.99-1.93,4.32-3.84,5.4-6.26.89-1.98.18-4.69.18-7.45,4.43.19,6.86-3.35,8.43-8.21.62-1.89,2.34-3.43,3.94-5.66,4.83,9.48,13.37,11.73,21.91,13.12,4.43.72,8.67.32,11.25,5.01.32.6,3.17.53,4.3-.15,5.15-3.07,9.17-7.78,15.86-8.6,2.17-.27,4.86-4.18,5.54-6.87,1.03-4.1,3.05-4.18,6.14-3.33.47.13.86.6,1.33.66,11.83,1.65,14.07,11.58,17.6,20.38,2.71,6.77,5.33,13.58,8.04,20.34C2223.38,1174.54,2224.38,1176.56,2225.31,1178.61Z" fill="#e6e6e6"/>
    <path id="Path_6984" data-name="Path 6984" d="M2248.59,1049.56c-1.19,1.83-1.8,2.86-2.51,3.82-3.41,4.64-6.71,9.06-7.56,15.28-.5,3.68-3.97,6.96-6.1,10.42-.56-.08-1.12-.15-1.68-.23-1.67-8.21-3.34-16.41-4.72-23.23,4.3-2.52,7.12-5.04,10.36-5.86C2239.91,1048.87,2243.84,1049.56,2248.59,1049.56Z" fill="#e6e6e6"/>
    <path id="Path_6985" data-name="Path 6985" d="M2227.33,1089.98c-5.36.41-6.92,3.78-8.1,7.99q-4.485,16.08-9.02,32.16c-.22.78-.54,1.52-1.1,3.1-3.96-1.55-7.78-2.95-11.52-4.53-6.01-2.53-8.88-1-10.81,5.13-.62,1.99-2.87,4.97-4.31,4.94-6.31-.17-9.74,4.43-14.19,7.36-.67.44-1.27,1.01-2.27,1.82-3.28-4.49-7.3-5.67-13.02-5.96-9.4-.48-17.75-4.89-21.03-14.18,3.37-4.4,6.5-8.48,9.6-12.57.6-.78.96-1.87,1.72-2.4,3.56-2.46,6.86-4.83,4.42-10.05-.37-.78,1.15-2.31,1.45-3.57.31-1.31.75-3.21.1-3.95s-2.57-.42-3.93-.46c-1.43-.05-2.85.01-4.28.02.49-1.47.88-2.98,1.48-4.41.63-1.51,1.97-2.92,2.07-4.43s-.55-3.75-1.65-4.47a5.516,5.516,0,0,0-4.9-.03c-1.73,1.04-2.84,3.11-4.21,4.73-2.72-5.76-2.34-6.67,3.09-9a13.653,13.653,0,0,0,3.17-2.4c2.67,1.1,5.08,2.09,7.5,3.08.3.12.85.07.93.25,3.33,8.18,12.58,5.18,18.28,9.73,6.35,5.07,12.97-.47,18.55-4.17,6.21-4.12,5.56-4.2,2.08-10.87a14.4,14.4,0,0,1-.51-10.21,73.966,73.966,0,0,1,7.96-16.03c2.08-3.22,5.55-5.54,8.43-8.23,1.97-1.85,3.98-3.65,5.87-5.37,7.14,5.5,14.54,11.21,21.9,16.88a11.885,11.885,0,0,1-2.46.73c-6.17.85-6.41,1.18-5.24,7.09,1.07,5.37,1.84,10.81,3.16,16.12a33.76,33.76,0,0,0,3.61,8.59C2232.1,1085.78,2231.15,1089.69,2227.33,1089.98Z" fill="#e6e6e6"/>
    <path id="Path_6986" data-name="Path 6986" d="M2302.79,1085.72c-1.12,1.76-.64,4.48-1.07,6.72a28.083,28.083,0,0,1-1.78,6.81c-.74,1.57-2.57,2.57-3.69,4-4.44,5.64-9.76,10.49-10.84,18.48-.7,5.17-7.07,8.35-12.22,7.45a20.014,20.014,0,0,0,1.66-2.98c1.63-5.05-.04-7.08-5.12-5.99-7.93,1.71-15.9,3.34-23.66,5.64-1.85.55-3.21,3.47-4.36,5.55-1.8,3.26-3.2,6.51-8.03,5.72-1.26-.2-2.95,1.21-4.2,2.19-1.69,1.32-2.91,3.46-4.76,4.32-2.74,1.27-7.8,3.17-8.46,2.28-2.28-3.07-4.81-7.62-4.1-10.92,2.73-12.64,6.54-25.05,10.34-37.43a8.12,8.12,0,0,1,4.95-4.51c4.28-1.22,6.17-3.65,6.83-7.89.4-2.61,1.66-5.11,2.69-7.6,1.68-4.06,3.23-8.21,5.29-12.07a110.941,110.941,0,0,1,7.6-12.05c2.14-3,4.8-5.61,3.1-9.81a2.359,2.359,0,0,1,.52-2.21c4.35-2.28,3.5-6.05,3.4-9.91-.17-6.93,1.34-8.4,8.06-10.26a18.077,18.077,0,0,0,5.67-2.99c5.5-4.09,11.83-4.73,19.35-5.33-.72,9.67.28,19.39-2.54,27.85-3.13,9.41-.05,19.81-6.03,28.59-1.85,2.73-.35,6.16,4.01,6.74a8.23,8.23,0,0,1,3.6,1.57c4.21,3.04,8.27,3.05,12.31-.34C2304.7,1079.7,2305.03,1082.18,2302.79,1085.72Z" fill="#e6e6e6"/>
    <path id="Path_6987" data-name="Path 6987" d="M2304.31,1102.5c-1.13,2.51-1.99,4.6-3,6.61-3.11,6.25-5.52,12.46-5.48,19.82.03,5.95-5.31,9.37-10.09,12.14-4,2.32-7.6,4.51-8.69,9.56-.42,1.94-2.63,3.42-3.51,5.35a19.88,19.88,0,0,0-1.47,6.03c-.17,1.58.95,4,.21,4.7-2.41,2.31-5.36,5.5-8.2,5.6-4.64.16-6.46,2.33-7.19,5.94-1,4.91-4.22,7.69-7.58,11.06-3.92,3.94-6.16,9.56-9.07,14.49-.64,1.1-.67,2.97-1.55,3.46-8.51,4.7-12.56,13.36-18.24,20.5-2.54,3.2-5.19,5.03-9.13,4.79-4.15-.26-8.43-.22-12.38-1.31-5.63-1.58-8.5-5.5-8.53-11.83-.01-2.04-2.7-5.49-4.58-5.81-5.26-.88-5.8-3.94-5.49-8.1.1-1.31.01-2.63.01-4.91,2.29.31,4.42.51,6.51.93,1.76.35,3.46,1.24,5.22,1.38,4.64.37,6.4-1.39,4.43-5.46-2.7-5.55,1.24-8.47,3.43-12.17a2.457,2.457,0,0,1,2.17-.82c5.01,1.46,8.16-.8,10.92-4.72.55-.78,3.19-.94,4.31-.34,5.08,2.73,5.01,2.86,12.21,2.42-4.38-10.55-8.7-20.97-12.54-30.22,5.67-4.01,10.29-7.3,14.95-10.54.79-.55,1.83-1.36,2.59-1.21,5.61,1.14,7.68-2.56,9.38-6.7,2.33-5.67,7.2-5.93,12.31-6.44,3.54-.35,6.97-1.76,10.47-2.64,1.7-.42,3.44-.73,5.41-1.14,0,1.04.05,1.52-.01,1.98-.25,2.24-.52,4.47-.79,6.7,2.86.09,6.29,1.25,8.44.07,4.63-2.54,8.49-6.21,9.34-12.15,1.08-7.66,8.02-11.46,12.08-17.17C2301.46,1101.96,2302.89,1102.41,2304.31,1102.5Z" fill="#e6e6e6"/>
    <path id="Path_6988" data-name="Path 6988" d="M2505.79,1040.79v112.38c-10.39,1.1-20.45,2.16-30.51,3.21-.49.05-1.1.28-1.46.07-5.01-2.82-9.76-.2-14.69.37-4.3.5-8.77-.62-13.16-.5-2.35.06-4.68,1.21-6.99,1.95-.39.13-.71,1.05-.94,1-5.33-1.12-8.93,3.04-13.45,4.36a16.154,16.154,0,0,0-4.1,1.65c-5.44,3.45-11.35,5.03-17.74,5.74-2.2.24-4.64,2.49-6.11,4.47-4.01,5.36-9.61,7.11-15.73,8.16-1.4.24-2.72.92-4.12,1.22a21.693,21.693,0,0,1-5.6.87c-2.56-.12-5.09-1.09-7.65-1.16-7.57-.23-9.27,1.29-9.35,8.43-.11,11.12-.03,22.25-.03,33.08-5.67,1.47-9.91,2.77-14.25,3.64-6.09,1.23-10.59-2.39-14.28-6.25a18.055,18.055,0,0,0-12.12-5.85c-9.24-.88-13.82-5.78-15.02-14.92-.99-7.53-2.28-15.03-3.63-22.51a10.051,10.051,0,0,1,2.64-9.04c4.75-5.51,3.97-10.03-2.25-13.95-4.55-2.87-9.31-5.41-14.76-8.55,1.58-1.29,3.08-2.97,4.94-3.96,8.86-4.76,14.12-11.13,13.95-22.11-.09-5.4,2.17-11.54,8.34-14.41a7.648,7.648,0,0,0,2.52-2.36c3.51-4.51,6.89-9.12,10.44-13.59.78-.98,2.11-2.25,3.13-2.2,6.84.32,10.96-5.08,16.45-7.51,2.54-1.13,4.99-3.13,7.59-3.31,4.95-.34,4.68-2.8,3.18-5.95-1.33-2.8-3.09-5.38-5.17-8.93,1.42-.92,3.37-3.21,4.89-2.95,3.33.57,7.15,1.04,8.12,5.87,1.61,7.97,3.12,8.03,10.92,6.48,3.72-.74,8.47.87,12,2.79,3.48,1.88,4.66,1.7,5.4-2.02q1.86-9.54,3.84-19.06c.25-1.22.68-2.39.93-3.28,5.11,6.38,10.16,12.59,15.09,18.89,1.6,2.04,3.05,2.69,5.89,2.05,5.07-1.14,10.38-1.15,15.51-2.04a19.09,19.09,0,0,0,6.55-2.78c4.08-2.54,7.85-4.78,12.62-1.13,2.96,2.27,6.09.94,8.6-1.32,11.15-10.03,25-15.1,38.39-21C2498.03,1043.33,2501.66,1042.27,2505.79,1040.79Z" fill="#e6e6e6"/>
    <path id="Path_6989" data-name="Path 6989" d="M2718.21,976.27c-6.8,5.51-9.33,12.39-7.84,21.15.28,1.67-2.16,4.51-4.04,5.7-3.81,2.4-7.69,4.81-7.68,9.64.02,4.66,1.21,9.32,1.91,13.97.15.96.72,1.94.6,2.84-1.19,8.68-2.35,17.37-3.82,26.01-.48,2.83-.47,4.66,1.98,6.92,1.87,1.73,3.31,5.45,2.84,7.88a16.526,16.526,0,0,0,1.7,11.49c1.81,3.4,2.11,6.04-2.16,7.9-2.07.91-3.75,2.71-5.85,4.29-3.28-2.99-5.78-5.72-10.75-3.55-2.6,1.14-6.47-1.02-9.58-.51a21.794,21.794,0,0,0-9.18,3.97c-5.04,3.8-8.92,9.52-16.57,7.93-1.15-.24-2.54.62-3.8,1.02-5.6,1.8-11.2,3.62-16.81,5.4-.95.3-2.14.89-2.9.58-6.76-2.78-13.99-.39-20.8-2.03-4.91-1.19-9.56.68-11.88,5.06-.56,1.06-1.98,2.72-2.53,2.56-6.81-2.09-10.24,3.57-15,6.19-2.8,1.53-5.74,2.8-8.62,4.21-3.15,1.54-7.26,2.15-6.27,7.43.22,1.2-.82,3.63-1.72,3.88-6.97,1.93-6.65,8.09-7.62,13.14-1.71,8.89-9.05,12.43-17.06,7.74-.86-.5-1.62-1.16-3.02-2.18-.92,1.84-1.75,3.5-2.74,5.47-3.13.02-6.58,1.24-8.79-2.82-.42-.76-2.36-1.01-3.57-.94-2.37.14-4.71.66-7.53,1.1v-14.33c0-33.46-.45-66.94.35-100.38a24.3,24.3,0,0,1,11.58-20.4c4.66-2.93,7.98-7.99,11.94-12.06a15.269,15.269,0,0,1,2.94-2.52,124.161,124.161,0,0,1,11.31-6.31,31.68,31.68,0,0,1,9.34-2.76c10.26-1.2,15.81-7.9,19.52-16.51,6.22-14.42,3.77-11.32,19.9-12.2,3.21-.17,6.5-1.76,9.43-3.32,3-1.59,5.23-3.65,8.63-.22,2.84,2.87,6.29.69,8.34-1.6,3.72-4.13,7.46-3.81,12.73-3.4,8.98.7,17.93,5.49,27.23,1.14,1.75-.82,4.25.12,6.39-.01,2.94-.19,5.87-.56,8.78-.98,2.28-.33,4.57-1.34,6.79-1.16,5.39.44,10.24.72,14.49-3.99,2.45-2.71,18.23-.04,20.43,2.79.59.76.5,2.12.59,3.22.11,1.28-.46,3.09.2,3.79C2723.99,970.73,2721.53,973.57,2718.21,976.27Z" fill="#e6e6e6"/>
    <path id="Path_6990" data-name="Path 6990" d="M2604.44,965.21c-3.34.96-5.55,1.93-7.84,2.18-3.62.39-7.3.32-10.95.41-3.01.08-5.15-1.5-7.75-2.88-5.42-2.87-8.87-8.62-14.38-10.28a36.058,36.058,0,0,0-16.94-.63,114.234,114.234,0,0,1-21.89,2.46c-11.76.15-23.28-3.75-35.28-.74-10.08,2.52-20.71,2.81-31.03,4.48-3.18.51-6.27,2.07-9.19,3.56-4.2,2.14-7.58.76-10.09-2.41-2.79-3.53-5.38-7.52-1.24-11.97,1.95-2.11,3.16-4.91,6.92-4.94,1.12-.01,2.51-2.68,3.26-4.36,1.11-2.48,1.64-5.21,2.63-7.75,1.59-4.07,3.57-7.99,4.99-12.11,1.11-3.21,2.04-6.03,6.36-5.13a4.035,4.035,0,0,0,2.89-.47c6.63-4.95,13.95-2.81,21.12-2.22,4.05.34,8.38-1.23,11.84,2.91,1.01,1.21,4.37.63,6.64.56a31.033,31.033,0,0,0,6.2-.91c1.98-.48,4.27-.83,5.76-2.04,6.13-4.98,15.92-5.17,22.66-1.23,4.75,2.77,10.32,4.18,15.59,6.01.72.25,1.96-.4,2.7-.97,4.17-3.24,6.86-1.76,9.87,2.08C2579.16,933.98,2591.34,948.9,2604.44,965.21Z" fill="#e6e6e6"/>
    <path id="Path_6991" data-name="Path 6991" d="M2579.19,969.38c-3.66,6.95-6.78,12.77-9.8,18.64a13.491,13.491,0,0,1-11.63,7.56c-6.98.24-11.98,4.49-17.96,6.64-7.8,2.8-10.27,10.81-16.39,15.1-.94.66-1.6,2.03-2.59,2.27-6.71,1.6-7.73,7.84-11.03,12.42-2.68,3.71-7.21,6.43-11.43,8.61-7.76,4-15.9,7.26-23.88,10.85-.75.34-1.4,1.03-2.17,1.18-6.59,1.29-11.79,4.82-16.32,9.64-2.66,2.82-5.21,2.85-9.23,1.21-3.31-1.35-8.11.42-12.09,1.42-3.06.76-5.77,3.01-8.84,3.66a80.983,80.983,0,0,1-13.22,1.28,5.038,5.038,0,0,1-3.67-1.57c-5.45-6.79-10.84-13.63-16-20.65-3.52-4.79-1.11-13.39,4.13-15.85,3.99-1.86,4.5-4.19,2.09-7.83-.85-1.28-1.86-3.61-1.3-4.48a55.434,55.434,0,0,1,7.34-8.51c.12-.12,2.5,2.11,3.89,3.15,1.62,1.22,3.32,2.34,4.99,3.5.99-1.59,1.91-3.23,3-4.75a29.686,29.686,0,0,1,3.89-4.8c2.71-2.47,5.67-4.69,9.19-7.55,5.72,2.89,7.24,2.05,7.71-5.15a1.637,1.637,0,0,1,.02-.5c3.76-8.5-.23-13.1-8.54-15.52,1.29-1.97,2.79-3.33,3.11-4.93.66-3.25,3.15-6.4-.53-10.03-1.53-1.5-.53-5.58-.65-7.89,3.8,3.56,7.34,7.39,11.46,10.42,1.41,1.03,4.41.48,6.49-.09,6.51-1.8,12.87-4.18,19.41-5.84,2.78-.7,5.89.05,8.81-.25a117.426,117.426,0,0,0,15.9-2.21c6.83-1.65,13.32-.35,20.05.39,11.12,1.21,22.39,2.06,33.26-2.1,6.61-2.54,16.28.26,21.24,6.02a7.437,7.437,0,0,0,2,1.36C2572.86,965.87,2575.83,967.51,2579.19,969.38Z" fill="#e6e6e6"/>
    <path id="Path_6992" data-name="Path 6992" d="M2455.67,914.63c-3.21,6.52-6.46,12.7-9.27,19.06-.96,2.17-.84,4.81-1.25,7.43-8.08,1.04-11.4,8.27-15.87,13.55-1.87,2.21-1.62,7.89-.14,10.91,2.68,5.46.68,8.62-2.99,11.93a8.887,8.887,0,0,0-1.19,2.13c3.63,2.26,8.67,3.71,10.34,6.92,1.59,3.07-.31,7.97-.74,12.75-5.01-3.76-8.07-2.55-10,2.51-.36.94-1.67,1.5-2.51,2.27-3.22,2.94-6.43,5.89-10.03,9.2-2.37-1.25-3.78-9.13-9.99-4.11-2.89,2.33-4.74,5.92-7.16,8.86-3.75,4.56,2.3,6.09,2.74,10.08-8.78,2.88-9.56,9.82-8.82,17.63.1,1.05-.71,2.86-1.53,3.17a5.069,5.069,0,0,1-3.99-.53c-5.52-3.65-10.74-7.78-16.4-11.2-2.89-1.74-3.85-3.6-2.56-6.45,2.82-6.21,1.75-11.93-1.72-17.48-.51-.81-1.41-1.96-1.16-2.55,1.51-3.63-.87-5.34-3.27-6.83-3.95-2.44-7.89-5.07-12.2-6.62-1.41-.51-4.27,1.74-5.86,3.33-1.95,1.96-3.25,4.56-4.38,6.22-4.54-2.8-8.16-5.04-12.57-7.76.32-2.57-1.79-4.58-4.65-4.55,0-4.01.26-7.37-.08-10.67-.27-2.74-1.89-3.36-4.66-2.26-2.4.95-5.15,1.11-7.76,1.47-2.39.33-4.8.48-6.86.68,1.14-8.55,2.26-16.93,3.5-26.22,1.43,2.2,2.73,3.92,3.73,5.8,2.03,3.79,4.91,6.49,9.34,6.38,4.26-.1,4.74,2.46,4.27,5.47-.7,4.44.21,5.78,5.23,5.35,2.72-.23,5.71,3.13,8.63,4.77,1.69.96,3.48,2.36,5.27,2.42a146.981,146.981,0,0,0,15.98-.47,4.47,4.47,0,0,0,3.21-2.33c2.15-5.82,3.99-11.77,5.92-17.62,6.97.15,8.32,2.35,6.42,8.71-.69,2.28-.73,5.89.6,7.32,1.58,1.67,5.11,2.46,7.53,2.06,1.64-.27,3.97-3.23,4-5.02.06-3.79,1.59-4.98,4.8-4.27,4.71,1.05,7.42-1.4,10.02-4.73,3.45-4.42,7.01-8.77,10.79-12.9,2.97-3.25,3.22-6.61,1.9-10.58a80.511,80.511,0,0,1-1.88-8.37c.55-.19,1.09-.38,1.64-.57.56,1.15,1.49,2.26,1.61,3.45.41,4.14,3.1,4.7,6.39,4.36,3.47-.35,5.31-2.21,5.43-5.85.05-1.37.94-2.69,1.17-4.07a82.739,82.739,0,0,0,1.08-8.31c.18-2.64.04-5.3.04-7.95.45.34.9.68,1.36,1.02,4.49-2.5,9.64-4.29,13.33-7.68C2445.8,908.97,2449.9,911.88,2455.67,914.63Z" fill="#e6e6e6"/>
    <path id="Path_6993" data-name="Path 6993" d="M2388.38,1053.58c-1.24,6.32-2.53,12.94-3.9,19.97-6.38-2.35-12.39-4.95-18.98-1.86-.51.24-3.3-2.26-3.4-3.6-.51-7.49-6.34-8.97-11.7-9.78-2-.31-4.96,2.98-6.81,5.19-1.7,2.03-.86,4,1.51,5.81,1.78,1.37,2.59,3.99,3.38,5.29-7.41,4.25-14.32,8.21-21.61,12.39-.28-1.14-.86-2.14-.58-2.56,4.06-5.99,4.07-12.9,4.74-19.68a2.812,2.812,0,0,1,.78-1.78c5.72-4.47,5.35-11.11,5.76-17.24.14-2.04-1.63-5.03-3.42-6.07-1.07-.61-4.35,1.28-5.74,2.85-2.4,2.7-2.43,7.35-7.03,8.43-.3.07-.11,2.54-.03,3.89.16,2.48.5,4.96.59,7.45a37.787,37.787,0,0,1-.26,5.73c-.44,3.59-1.01,7.17-1.55,10.75-.44,2.99-2.13,4.3-5.18,3.87-4.28-.6-5.09,1.89-4.85,5.43.32,4.74-.36,9.1-5.47,11.66,2.15-5.12-2.42-10.76,2.29-15.91,3.41-3.73-1.77-5.98-3.23-8.74-.3-.58-3.47.33-5.32.6s-3.92,1.27-5.51.75c-3.06-.99-5.86-2.82-9.29-4.57.84-2.46,1.86-5.03,2.6-7.69a80.323,80.323,0,0,0,2.05-9.07c1.22-7.7,2.41-15.41,3.31-23.15.51-4.44.19-8.97.7-13.4.31-2.66,1.49-5.23,2.28-7.83a33.506,33.506,0,0,0,1.68-5.63c.56-4.89.75-9.82,1.26-14.71.58-5.65,5.36-3.73,8.5-4.29,2.91-.52,6-.11,9.87-.11-.44-.66.04-.28.01.06-.26,2.91-1.32,5.96-.74,8.66.52,2.39,2.62,4.61,4.46,6.46,1.27,1.27,3.29,1.81,5,2.62,1.57.74,3.59,1.01,4.69,2.17,4.67,4.91,10.5,4.35,12.71-1.99,1.6-4.58,3.05-4.83,6.38-1.77,1.11,1.02,3.09,1.03,4.5,1.81,2.76,1.55,5.86,2.63,5.79,6.96-.03,2.08,2.16,4.1,2.53,6.29.63,3.73,1.54,7.81.66,11.32-1.62,6.44-1.32,8.06,4.1,11.43,5.1,3.19,9.82,7,14.88,10.27C2382.92,1051.64,2385.49,1052.35,2388.38,1053.58Z" fill="#e6e6e6"/>
    <path id="Path_6994" data-name="Path 6994" d="M2294.66,989.37c-.49,5.24-.87,11.47-1.81,17.62-.17,1.16-2.47,2.68-3.92,2.85-8.02.94-15.81,2.26-22.3,7.62a7.529,7.529,0,0,1-2.28.98c-2.73.96-6.83,1.1-7.89,2.98-1.86,3.27-1.86,7.61-2.63,11.5-.32,1.65-.62,3.31-.93,4.97a41.834,41.834,0,0,0-4.75-1.77c-6.41-1.58-11.8-7.45-19.37-4.3-2.87,1.18-5.3-.14-6.26-3.22-.98-3.14,2.14-2.85,3.41-4.18,1.77-1.87,2.27-4.95,3.74-8.55,2.65-.62,8.56,1.2,8.91-5.47.15-2.67-6.24-4.8-12.61-4.44-.68-4.62,2.95-7.61,8.41-6.81a18.637,18.637,0,0,1,3.83,1.12c2.58.97,3.74-.01,4-2.61.29-2.79.7-5.57,1.15-9.01,7.28,2.54,14.13,4.91,20.97,7.33,4.67,1.65,6.96-2.3,9.76-4.45a13.345,13.345,0,0,1,13.45-1.75C2289.4,990.58,2292.03,989.58,2294.66,989.37Z" fill="#e6e6e6"/>
    <path id="Path_6995" data-name="Path 6995" d="M2249.66,1044.12c-2.08.88-4.12,2.36-6.26,2.54-12.22,1.02-21.05-5.39-29.1-13.61-1.6-1.63-4.16-2.29-6.19-3.54-1.34-.81-2.95-1.62-3.69-2.87a77.5,77.5,0,0,1-5.08-10.4c-.53-1.33-.6-3.9.19-4.51,6.53-5.02,13.48-9.26,22.32-8.99a11.382,11.382,0,0,1,.73,2.74c-.1,3.59,1.2,4.55,4.89,3.75,2.4-.52,5.15.5,7.74.83-.01.66-.01,1.32-.01,1.97-1.4.25-2.82.39-4.18.76-1.69.45-4.72.98-4.78,1.66-.34,4.67-3.1,7.45-6.04,10.71-2.66,2.95.64,8.75,4.8,9.59a6.063,6.063,0,0,0,3.45.05c6.54-3.1,11.45,2.19,17.08,3.45C2247.26,1038.64,2248.3,1042.08,2249.66,1044.12Z" fill="#e6e6e6"/>
    <path id="Path_6996" data-name="Path 6996" d="M2198.09,1019.69c1.62,2.31,2.2,5.33,3.5,7.9a49.389,49.389,0,0,0,3.4,5.08c-.04.25-.01.51-.1.56-9.32,5.49-13.85,14.53-18.63,23.74-3.97,7.64-5.06,14.22,1.3,21.22-2.9,2.04-5.53,3.96-8.25,5.76-4.92,3.28-9.64,3.53-14.73-.18-2.36-1.71-5.68-2.1-8.59-3.05-.45-.15-1.14.15-1.46-.09-3.48-2.75-6.85-5.66-10.4-8.32a7.12,7.12,0,0,0-3.88-1.32c-3.64-.07-4.8-2.32-4.33-5.23,1.22-7.49,2.81-14.91,4.23-22.37.12-.63.36-1.49.06-1.91-5.64-8.17-1.66-17.56-3.38-26.23-.7-3.57-.36-7.48-1.71-10.74-1.25-3.01-4.12-5.34-6.86-8.68.76-.36,2.48-1.66,4.35-1.96,10.77-1.69,14.24-7.48,9.5-17.11-2.76-5.62-6.36-10.83-9.56-16.24-.81-1.37-1.54-2.78-2.6-4.7,6.07-1.2,7.17-5.27,7.28-10.03a13.876,13.876,0,0,1,.63-3.89c2.54-7.8-.73-13.98-8.64-16.65-1.17-.39-1.97-1.9-2.9-2.94-2.4-2.67-4.77-5.37-7.67-8.64.27-1.16,1.84-4.05,1.22-6.34-.65-2.42-3.25-4.43-5.26-6.35-6.64-6.38-7.17-9.06-2.95-17.12a5.138,5.138,0,0,1,1.16-1.59c6.05-5.13,6.06-5.12,2.83-12.31.33-.27.66-.53.99-.8,1.53,1.9,3.49,3.6,4.49,5.75,1.6,3.45,3.36,4.07,6.48,1.86,3.52-2.49,7.38-4.52,10.8-7.13a5.8,5.8,0,0,0,2.12-4.45c-.77-5.06.6-8.69,5.31-10,4.68-1.3,5.37-3.9,3.59-7.74-2.46-5.29-3.07-11.65-8.83-15.08-.75-.44-1.07-2.06-1.11-3.16-.18-4.64-1.45-8.55-6.7-10.04,1.48-2.27,2.62-4.02,4.35-6.69,1.56,2.28,2.85,4,3.94,5.83.67,1.12.73,2.74,1.6,3.59,5.1,4.98,10.13,10.08,15.65,14.56,3.6,2.91,4.61,8.46,1.3,11.5a18.447,18.447,0,0,0-2.46,3.6,59.306,59.306,0,0,1-4.81,6.93c-2.45,2.68-1.99,4.53.74,6.51a51.326,51.326,0,0,1,5.54,4.78q11.97,11.715,23.86,23.53c2.52,2.51,4.59,5.2,3.46,9.25a41.89,41.89,0,0,0-.88,6.45c-5.05-.38-9.94-1.01-14.83-1.01-2.6,0-4.31,1.59-3.06,4.7.58,1.42.94,2.93,1.55,4.88a12.538,12.538,0,0,0-3.09.2c-2.45.95-6.82,1.93-6.89,3.09a18.7,18.7,0,0,0,2.43,10.1c3.16,5.32,7.77,9.89,7.55,16.65-.31,9.82,6.33,14.95,15.75,12.48a71.2,71.2,0,0,1,13.2-1.8c3.53-.23,3.63,2.75,3.8,5.26.31,4.48.72,8.84,6.15,9.44.59,9.38-.93,18.85,6.36,27.04-2.88,1.5-5.6,2.98-8.37,4.35-1.77.88-3.79,1.36-5.41,2.46C2193.96,1011.11,2193.77,1013.54,2198.09,1019.69Z" fill="#e6e6e6"/>
    <path id="Path_6997" data-name="Path 6997" d="M2340.24,909.62c.16,1.29-1.45,3.07-2.67,4.17-1.44,1.31-4.02,1.71-4.89,3.22-4.57,7.88-12.22,11.72-19.73,15.81-3.71,2.02-3.78,5.4-2.71,8.67,1.57,4.84-1.44,7.73-4.5,9.73-7.09,4.65-7.24,6.64-6.89,15.06.26,6.2-.42,13.36-6.24,18.12a16.489,16.489,0,0,0-2.36,3.09c-6.59-3.34-13.3-2.38-18.47,2.29-2.99,2.69-5.96,5.11-10.22,1.1-1.72-1.62-5.15-1.37-7.78-2.08-4.42-1.18-8.82-2.44-13.49-3.75-.32,4.26-.62,8.13-.94,12.38a16.381,16.381,0,0,0-14.76,1.59c-1.8,1.05-5.8.83-7.21-.5-2.33-2.19-6.47-3.9-5.08-8.77.52-1.84-.44-4.09-.71-6.16-.29-2.16-.99-4.38-.77-6.49.35-3.48,1.17-6.59-3.75-7.67-1.13-.24-2.18-3.03-2.42-4.76-1.31-9.21-1.97-9.81-10.94-8.55-3.9.55-7.82,1.04-11.72,1.61-5.59.82-10.2-3.75-10.63-9.55a35.9,35.9,0,0,0-3.01-11.18c-1.61-3.77-4.3-7.07-5.99-10.82-.87-1.94-2.4-5.06,2.04-5.52,7.17-.73,7.83-1.72,5.91-10.14,4.77.75,9.13,1.61,13.54,2.01,1.31.12,3.49-.71,4-1.74,2.74-5.58,1.12-15.37-3.02-19.43-3.25-3.17-6.78-6.05-10.01-9.24-4.93-4.9-9.89-9.78-14.44-15.02-1.83-2.1-2.59-5.13-3.82-7.76,1.49-2.54,2.93-4.96,4.09-6.94,1.72,1.28,3.73,3.97,6.08,4.32,8.22,1.22,9.66-.26,9.49-8.73-.15-6.93-.05-13.98-1.3-20.75-.74-4.04-3.88-7.64-5.46-10.53,7.49-4.74,15.86-10.04,24.42-15.45.8,3.03,1.16,6.06,2.42,8.66a17.6,17.6,0,0,0,5.09,6.41c4.95,3.56,5.98,8.02,2.26,13.05a10.672,10.672,0,0,1-2.75,2.85c-6.4,3.91-8.25,9.98-8.63,16.97a9.548,9.548,0,0,1-1.78,5.39c-5.25,6.25-6.03,18.84-1.17,25.46a81.866,81.866,0,0,0,6.92,8.47,6.714,6.714,0,0,0,4.32,1.62c7.82.16,15.65.09,23.47.05,1.14,0,2.83.15,3.33-.5,4.11-5.24,8.34-10.43,11.79-16.09,1.92-3.15,2.1-7.63,7.39-3.83.57.41,2.97-.4,3.14-1.02,1.1-4.06,3.99-5.98,7.37-8.06,2.94-1.8,4.85-5.21,7.5-7.57,1.25-1.11,3.34-2.27,4.79-2,7.92,1.48,14.04-.83,18.22-8.17,5.04,3.86,9.7,7.32,14.21,10.97a5.977,5.977,0,0,1,1.8,3.31c.85,4.35,1.46,8.76,1.98,12.02-2.18,5.11-5.4,9.65-5.65,14.36-.16,2.92,3.97,6.32,6.73,8.92.45.42,3.88-2.05,5.7-3.48,1.08-.84,1.71-2.25,3.22-3.23-4.42,6.13-3.87,12.67-2.45,19.37,1.61,7.57,7.09,9.84,13.08,4.84,3.91-3.26,7.18-7.29,11.23-11.48C2338.56,902.78,2339.83,906.15,2340.24,909.62Z" fill="#e6e6e6"/>
    <path id="Path_6998" data-name="Path 6998" d="M2421.85,935.97c-.99,1.24-.78,3.37-1.5,4.92-.54,1.15-1.59,2.65-2.61,2.83-.93.16-2.41-1.05-3.15-2.03-1.06-1.39-1.33-3.54-2.58-4.59a5.943,5.943,0,0,0-4.55-.73c-.69.14-1.45,2.15-1.37,3.26.22,3.08,1.21,6.14,1.24,9.21.04,2.57-.1,5.67-1.46,7.62a138.339,138.339,0,0,1-11.99,14.5,7.8,7.8,0,0,1-5.4,2.14c-6.51-.21-7.61.65-8.56,6.97-.15,1.05-2.13,2.68-3.09,2.56a6.077,6.077,0,0,1-3.9-2.66c-.49-.76.29-2.5.76-3.7,2.64-6.73-.75-12.35-7.89-12.39-1.58-.01-4.04,1.41-4.61,2.78-2.28,5.53-3.98,11.31-5.87,16.9-5.08.39-10.08.96-15.09,1.06-1.48.03-3.19-.99-4.44-1.98-3.73-2.96-7.25-6.22-12.27-5.47-.51-2.49-.57-5.06-1.62-7.15-.73-1.45-2.82-3.14-4.28-3.12-4.7.06-7.44-1.83-9.02-6.19-.69-1.92-2.24-3.53-3.41-5.3,7.02-4.04,8.6-7.74,7.6-15.7a5.9,5.9,0,0,1,2.05-4.39,46.884,46.884,0,0,1,8.2-5.26c4.5-2.33,8.32-5.14,10.89-9.73.94-1.69,3.25-2.69,5.07-3.79,3.34-2.02,4.72-4.55,4.12-8.7a90.426,90.426,0,0,1-.94-16.6c.2-4.73,1.88-9.07,3.93-13.63,2.37-5.29,1.29-12.66.14-18.83-.84-4.54-1.28-8.39,1.8-13.38,2.02,5.83,6.8,9.8,3.29,16.43-2.19,4.13-.36,6.15,4.07,7.54a15.376,15.376,0,0,1,6.17,4.5c3.26,3.61,15.61,8.32,18.98,6.86,7.32-3.19,7.32-3.19,13.18-2.42,1.73,2.52,3.24,4.55,4.57,6.69.95,1.52,2.26,3.14,2.39,4.8.45,5.93.6,11.89.61,17.84.01,3.48,1.01,5.31,4.8,6.15,5.59,1.24,11.59,1.93,15.83,6.6.21.24.7.58.65.67C2420.14,925.89,2425.75,931.09,2421.85,935.97Z" fill="#e6e6e6"/>
    <path id="Path_6999" data-name="Path 6999" d="M2447.22,908.29c-5.95.04-10.23,2.89-13.8,6.8-2.53,2.76-9.17,2.91-11.53-.03a4.574,4.574,0,0,0-2.2-1.68c-5-1.12-10.05-2.08-15.65-3.2,0-5.81.47-11.47-.17-16.99-.41-3.59-2.39-7.02-3.79-10.47-.29-.71-1.59-1.15-1.65-1.78-.41-4.81-2.92-6.82-7.61-5.97-3.6.64-7.16,1.46-10.74,2.24-.45.1-.82.57-1.27.71-2.6.77-12.51-3.46-14.84-6.76,11.29.38,12.08-9.25,14.58-16.08,1.19-3.26-2.1-8.4-3.9-12.45-1.07-2.4-1.64-4.07.41-6.21a8.5,8.5,0,0,0,1.84-4.45c.41-2.73,1.19-6.32-2.48-7.05-1.7-.33-3.92,1.92-5.46,2.76-.48-1.45-1.85-3.81-1.88-6.18-.04-2.62,1.06-5.27,1.84-7.86.74-2.44,2.15-4.75,2.47-7.22.76-5.92.96-11.9,1.63-17.83.14-1.21,1.52-3.36,2.01-3.27,7.62,1.35,13.27-3.1,19.73-6.85,2.31,5.05.7,15.42,11.64,8.24,2.17,8.24,4.6,15.79,6.08,23.53,1.84,9.56,9.64,14.31,15.37,20.76.53.58,1.81.78,1.96,1.36.92,3.55.94,7.49,2.54,10.67,2.46,4.93-1.84,6.77-3.79,9.1-2.19,2.62-2.55,5.03-2.58,8.09-.07,6.12-.63,12.22-.79,18.33-.23,8.63,3.68,12.67,12.14,11.98,3.95-.32,5.11.75,5.71,4.64C2443.71,899.51,2445.68,903.65,2447.22,908.29Z" fill="#e6e6e6"/>
    <path id="Path_7000" data-name="Path 7000" d="M2289.57,836.85c-2.87,3.17-5.19,6.53-8.28,8.88-2.14,1.63-5.64,3.09-8.01,2.51-7.67-1.89-11.55,3.59-16.4,7.27a40.373,40.373,0,0,0-5.19,4.76c-1.63,1.77-3.03,3.75-4.59,5.73-5.3-1.84-8.83-.36-9.99,5.31-.81,3.95-4.19,5.91-5.61,8.89-4.4,9.19-12.19,7.41-19.61,7.48a9.427,9.427,0,0,1-1.99-.02c-4.14-.91-8.68,1.86-12.56-2.31-6.4-6.88-10-14.4-7.93-23.94a4.743,4.743,0,0,1,1.28-2.63c4.1-3.23,4.86-7.69,4.91-12.47.06-4.48,2.16-7.73,5.55-10.63,2.6-2.22,5.28-4.87,6.64-7.91,2.96-6.63,1.37-10.24-4.96-13.99-3.25-1.92-6.68-10.37-5.54-13.62.11-.31.19-.79.4-.86,4.93-1.75,6.52-5.5,8.03-10.35,1.53-4.93,5-9.47,8.39-13.55,4.57-5.49,10.77-8.32,18.08-6.99,1.87.34,3.52,2.21,5.13,3.56,2.27,1.9,4.41,3.95,6.59,5.96,2.32,2.15,4.49,4.48,6.96,6.44a20.6,20.6,0,0,0,5.57,3.07c5.5,2.06,7.83,5.47,7.68,11.3-3.97,1.19-7.85,2.36-10.75,3.23,1.35,6.17,2.81,10.89,3.33,15.71.52,4.84.86,9.06,7.56,6.9.51,2.45.91,4.32,1.46,6.97,2.92-1.18,5.68-1.87,7.97-3.31,5.69-3.57,12.3-1.46,14.59,4.96C2288.78,834.6,2289.27,836,2289.57,836.85Z" fill="#e6e6e6"/>
    <path id="Path_7001" data-name="Path 7001" d="M2301.57,822.03c1.56,5.15-1.74,8.63-4.35,12.06-1.65,2.16-5.41.78-6.03-1.9-1.05-4.5-4.73-6.27-8.28-8.12-1.44-.75-3.23-.86-4.62-1.69-2.28-1.35-3.39-.76-4.75,1.41-1.02,1.62-3.01,2.63-4.57,3.92-.43-.13-.85-.25-1.28-.38.85-6.37-3.49-5.49-7.26-5.53-1.04-6.17-2.04-12.13-3.16-18.76,2.11-.15,4.25-.7,6.23-.36,3.38.58,4.05-.92,4.02-3.8-.09-6.59-3.93-11.67-10.23-14.18-1.88-.75-3.21-2.84-4.85-4.25-1.61-1.38-3.27-2.69-4.93-3.99-3.08-2.39-6.19-4.75-9.49-7.28,9.92-7.23,10.57-15.09,2.06-20.04,2-5.48,4.03-11.03,6.05-16.57.43-.08.86-.17,1.3-.25.49,1.61,1.63,3.35,1.34,4.8-.73,3.58.28,5.36,3.91,4.65,4.99-.97,5.73,1.59,5.38,5.61-.19,2.11-.03,4.26-.03,7.12,7.75-2.92,10.41,3.75,14.96,6.76,5.63,3.74,8.28,8.52,7.87,15.8-.48,8.77,6.26,13.03,13.37,16.17,5.22,2.31,7.51,6.61,7.87,11.76.27,3.86-.83,7.8-1.1,11.72A15.383,15.383,0,0,0,2301.57,822.03Z" fill="#e6e6e6"/>
    <path id="Path_7002" data-name="Path 7002" d="M2343.35,859.04c2.41,7.36,3.5,14.85-2.69,21.37-.83.88-.9,2.73-.89,4.13.06,5.38-1.23,10.05-5.53,13.76-3.39,2.92-6.27,6.45-9.66,9.38-4.2,3.62-7.47,2.47-8.55-2.95-1.06-5.38-2.08-10.69,1.63-15.84.95-1.31-.48-4.33-.82-6.56-1.75.82-3.77,1.33-5.19,2.54-1.56,1.33-2.57,3.3-3.82,5-5.88-4.67-5.98-11.57-.42-15.94,2.59-2.03,2.68-4.11,1.52-6.98-1.07-2.65-1.28-5.64-2.27-8.32-.96-2.61-1.92-5.57-3.81-7.42-3.42-3.35-7.53-6-12.11-9.53,1.34-1.4,2.32-3.29,3.77-3.77,7.77-2.6,11.02-8.77,9.82-17.07-.66-4.59,0-9.48.74-14.12.55-3.47-2.34-11.39-6.03-13.99a11.349,11.349,0,0,0-2.56-1.53c-9.85-3.69-14.46-10.5-13.42-21.22.19-1.96-1.15-4.62-2.64-6.07-4.42-4.27-9.17-8.21-13.98-12.04-1.41-1.12-3.45-1.44-5.59-2.29-.37-9.96.68-10.45-7.7-10.95-1.27-3.09-2.39-5.74-3.45-8.41a7.137,7.137,0,0,1-.45-1.93c-.63-5.39-1.42-10.77-1.73-16.18-.1-1.83.89-3.77,1.62-5.56.55-1.36,2.01-2.51,2.13-3.84.6-6.79,5.59-8.23,12.02-10.11,0,3.25-.08,5.86.04,8.47.06,1.41-.07,3.47.76,4.11,3.24,2.51,6.92,4.42,10.24,6.83,2.62,1.89,4.95,4.18,7.55,6.42-1.61,4.8-2.41,9.08,4.01,11.24,2.27.76,3.65,3.13.45,5.72-3.06,2.47-2.68,7.46-.17,10.75a11.076,11.076,0,0,1,1.38,3.83,46.8,46.8,0,0,1,1.46,6.36,12.7,12.7,0,0,1-.15,5.5c-1.12,3.3-.73,5.19,2.92,6.46a13.1,13.1,0,0,1,6.37,4.45c3.66,5.58,9.47,6.6,15.06,8.51,2.91.99,6.19,2.34,8.1,4.56,5.12,5.95,12.14,7.91,18.91,10.63.97.39,1.02,2.74,2.02,3.46,5.37,3.84,2.59,9.12,2.92,13.93.18,2.74,1.43,5.43,2.36,8.08,2.72,7.83,2.13,15.15-2.36,22.33A16.722,16.722,0,0,0,2343.35,859.04Z" fill="#e6e6e6"/>
    <path id="Path_7003" data-name="Path 7003" d="M2294.12,685.53c-.39,6.77,1.21,13.63-5.36,19.06-2.7,2.22-3.3,6.98-4.92,10.73-4.13-2.99-7.53-5.91-11.35-8.1-4.9-2.79-5.82-6.84-6.32-12.09-.51-5.38.39-8.49,5.18-10.93,2.69-1.37,4.9-3.68,7.29-5.59,3.05-2.44,6.07-4.91,9.34-7.56C2291.52,675.88,2294.46,679.85,2294.12,685.53Z" fill="#e6e6e6"/>
    <path id="Path_7004" data-name="Path 7004" d="M2330.22,761.67c-.79.71-.4,3.76.45,5.12,2.13,3.38,5.11,6.23,7.24,9.61,2.57,4.07,4.62,8.47,7.25,13.41-2.24,4.57-2.42,3.22-8.13,1.84-8.05-1.95-12.35-8.15-18.52-12.1-3-1.93-7.21-1.93-10.84-2.93a7.562,7.562,0,0,1-2.84-1.54c-4.3-3.75-8.53-7.58-13.32-11.85.84-2.93,2.2-6.34-.69-10.94-1.51-2.4-.97-7.06-3.5-10.29-.61-.76.16-3.38,1.1-4.45,3.49-4,3.32-8.59-1.41-10.75-3.64-1.67-3.98-3.7-2.36-6.58,3.54-6.27,4.59-13.97,10.75-18.78a4.26,4.26,0,0,0,1.49-3.04c-.31-8.31,2.36-17.05-3.3-24.65a19.2,19.2,0,0,1-1.05-3.05c5.09,1.89,9.14,3.23,13.02,4.95.82.37,1.22,2.09,1.47,3.26.27,1.27-.17,2.73.24,3.93,1.23,3.6,2.31,7.83,6.99,8.08,4.89.26,4.66-4.26,5.8-7.4.73-2.02,1.71-3.94,2.49-5.94,1.77-4.55,3.99-9.01,5.11-13.73,1.48-6.3,4.79-9.09,10.91-7.52,7.88,2.03,15.69,4.29,23.64,6.48-6.18,5.4-5.85,14.05-4.57,21.06.87,4.78,3.23,9.52,2.99,14.82-.05,1.09,1.28,2.24,2.77,4.65-6.67,2.42-12.9,5.05-19.35,6.93-5.84,1.7-6.48,7.09-8.98,11.13-3.5,5.64-3.43,10.61,1.64,16.01,4.77,5.08,9.15,10.99,9.76,19.27-2.99.15-5.88-.21-8.43.57A21.683,21.683,0,0,0,2330.22,761.67Z" fill="#e6e6e6"/>
    <path id="Path_7005" data-name="Path 7005" d="M2399.9,710.5c-.61,5.27-1.09,9.68-1.62,14.08-.77,6.38-.58,13.11-2.63,19.05-2.12,6.13-4.67,12.45-9.88,17.2-2.74,2.49-4.7,5.94-6.63,9.19-2.05,3.45-2.37,7.97-6.83,9.9-.84.36-1.14,2.33-1.38,3.61-.89,4.91-1.9,9.82-2.39,14.77-.58,5.81.5,11.69-3.7,16.99a7.268,7.268,0,0,0,.28,9.3c.88,1.04.22,3.26.75,4.77a37.555,37.555,0,0,0,2.69,5.19c1.23-1.31,2.53-2.56,3.67-3.95a7.466,7.466,0,0,0,.88-2.14c.45.14.91.28,1.36.42-.7,2.07-.94,4.5-2.2,6.15-2.13,2.8-2.33,5.33-.63,8.25.83,1.43,1.43,3.01,2.33,4.39,4.47,6.88-.36,12.48-3.31,17.65-1.2,2.09-6.39,2.4-9.81,2.56-2.28.1-4.64-1.49-6.89-2.29-.16-.42-.47-.85-.36-1.01,3.93-6.1,1.64-11.63-1.48-17.11-1.79-3.15-1.78-6.14-1.09-9.89.93-5.03.26-10.52-.6-15.66-.86-5.07-4.37-9.72-1.03-15.26.57-.94-.9-3.86-2.19-5.02-3.18-2.86-3.37-5.56-.47-8.44,3.1-3.09,2.71-5.25-.25-8.65-3.45-3.96-5.43-9.16-8.23-13.71-1.51-2.45-3.4-4.66-5.71-7.78,4.2-5.76,11.1-1.47,17.17-3.82.55-4.21-.81-8.58-3.15-12.52a109.388,109.388,0,0,0-9.34-13.52c-2.04-2.48-2.3-4.53-1.03-7.2,1.57-3.28,2.65-6.87,4.7-9.8,1.14-1.62,3.79-2.24,5.83-3.16,5.96-2.69,12.02-5.21,17.88-8.1.74-.37,1.24-2.98.7-3.84-1.89-3.04-3.04-5.72-.68-9.14.49-.71-.54-2.77-1.26-3.96a24.265,24.265,0,0,0-2.97-3.45c6.35.28,12.69.57,19.65.88-2.1,5.14-.56,7.12,4.44,8.03,5.65,1.02,6.51,4.42,3.27,9.05a9.538,9.538,0,0,0-1.79,2.96c-.34,1.51-.8,3.69-.04,4.58.95,1.12,3.09,1.67,4.71,1.65A81.6,81.6,0,0,0,2399.9,710.5Z" fill="#e6e6e6"/>
    <path id="Path_7006" data-name="Path 7006" d="M2500.63,618.45c-11.99,9.63-26.83,11.72-41.07,15.5a11.763,11.763,0,0,0-6.29,4.67,124.151,124.151,0,0,0-9.58,17.48c-2.47,5.74-6.13,9.27-12.34,8.94-5.15-.26-6.97,2.81-8.4,6.68-1.39,3.77-2.65,7.5-6.98,9.09-.88.32-1.43,1.77-1.96,2.79-3.55,6.89-6.97,13.85-10.65,20.68a6.5,6.5,0,0,1-3.65,3.14,112.748,112.748,0,0,1-11.35,1.42c1.67-4.2,4.96-8.45,4.2-11.78-.73-3.23-5.62-5.53-9.61-9.05.11-4.51-1.27-5.9-8.01-6.03-3.16-.06-6.49.59-9.43-.22-2.06-.57-4.83-2.85-5.15-4.73-1.36-8.02,4.69-14.82,12.56-16.26,4.22-.78,8.34-2.91,12.13-5.08,5.16-2.97,9.96-6.56,14.92-9.88.28-.18.66-.25.87-.49,8.99-10.57,22.76-11.7,34.34-17.09,9.4-4.38,12.08-12.27,13.52-21.02.5-3.07,1.29-3.61,4-4.13,3.06-.58,5.9-2.24,8.86-3.37,1.49-.57,3.1-.87,4.53-1.55,2.27-1.08,4.76-2.02,6.57-3.66,2.74-2.5,10.26-2.96,13.91-.5a41.78,41.78,0,0,0,5.65,3c2.31,1.08,5.69,1.36,6.86,3.13a46.242,46.242,0,0,1,5.8,13.11C2505.23,614.52,2502.41,617.02,2500.63,618.45Z" fill="#e6e6e6"/>
  </g>
</svg>
