<?xml version="1.0" encoding="UTF-8"?>
<svg id="Capa_2" data-name="Capa 2" xmlns="http://www.w3.org/2000/svg" viewBox="0 0 134.95 366.65">
  <defs>
    <style>
      .cls-1 {
        fill: #75bbe2;
      }

      .cls-2 {
        fill: #94cbe9;
      }

      .cls-3 {
        fill: #c0e3f3;
      }
    </style>
  </defs>
  <g id="Capa_1-2" data-name="Capa 1">
    <g>
      <g id="Trazado_7015" data-name="Trazado 7015">
        <path class="cls-1" d="M133.98,262.84c-1.16,16.3-11.19,30.64-26.1,37.32-12.5,5.63-25.2,10.78-38.08,15.44-1.83,.67-3.67,1.32-5.51,1.96-21.03,7.37-42.51,13.44-64.29,18.17V39.94c8.04,1.15,16.06,2.46,24.04,3.94,15.47,2.86,30.83,6.33,46.05,10.41,13.67,3.63,25.01,13.17,30.92,26.03,8.17,17.96,14.93,36.5,20.21,55.48,.93,3.34,1.81,6.69,2.64,10.05,1.67,6.66,3.15,13.38,4.44,20.13,6.11,31.9,8.02,64.46,5.68,96.86Z"/>
      </g>
      <g id="Trazado_7017" data-name="Trazado 7017">
        <path class="cls-2" d="M75.57,176.01c-21.04,30.64-44.91,59.23-71.3,85.41-1.42,1.4-2.84,2.8-4.27,4.18V15.42c1.23,1.36,2.45,2.72,3.66,4.09,7.03,7.93,13.83,16.06,20.38,24.37,20.54,26.03,38.71,53.87,54.3,83.19,8.24,15.56,7.17,34.41-2.77,48.94Z"/>
      </g>
      <g id="Trazado_7018" data-name="Trazado 7018">
        <path class="cls-3" d="M106.3,41.57C78.05,25.18,47.75,12.54,16.23,4.01,10.85,2.56,5.44,1.22,0,0V4.11c5.08,1.14,10.15,2.4,15.18,3.76,15.59,4.22,30.89,9.46,45.77,15.67,14.89,6.21,29.37,13.39,43.34,21.49,13.54,7.84,21.63,22.41,21.13,38.05-.54,17.64-1.94,35.24-4.2,52.72-3.66,28.48-9.59,56.67-17.73,84.25-9.94,33.65-23.08,66.35-39.2,97.51-3.91,7.58-8,15.06-12.27,22.44-8.48,14.65-24.26,23.31-41.17,22.61-3.62-.16-7.24-.35-10.85-.57v4.02c3.56,.21,7.12,.4,10.68,.55,.69,.03,1.38,.04,2.07,.04,17.61,0,33.85-9.3,42.74-24.64,5.01-8.67,9.78-17.48,14.31-26.41,15.34-30.25,27.92-61.89,37.52-94.42,7.29-24.7,12.82-49.88,16.54-75.33,3.06-20.75,4.91-41.67,5.56-62.65,.02-.5,.02-1,.02-1.5,0-16.53-8.77-31.81-23.14-40.13Z"/>
      </g>
    </g>
  </g>
</svg>