<?xml version="1.0" encoding="UTF-8"?>
<svg id="Capa_2" data-name="Capa 2" xmlns="http://www.w3.org/2000/svg" viewBox="0 0 187.97 539.24">
  <defs>
    <style>
      .cls-1 {
        fill: #94cbe9;
      }

      .cls-2 {
        fill: #c0e3f3;
      }
    </style>
  </defs>
  <g id="Capa_1-2" data-name="Capa 1">
    <g>
      <g id="Trazado_7008" data-name="Trazado 7008">
        <path class="cls-1" d="M187.13,312.12c-6.15,79.42-112.83,213.59-187.13,227.12V49.45c4.7,1.6,8.97,3.12,12.45,4.44,43.46,16.57,82.56,42.88,114.28,76.91,4.07,4.37,7.8,9.03,11.17,13.96,11.7,17.1,27.02,42.96,37.58,75.15,.62,1.89,1.22,3.79,1.81,5.72,7.72,25.5,12.3,54.71,9.84,86.49Z"/>
      </g>
      <g id="Trazado_7014" data-name="Trazado 7014">
        <path class="cls-2" d="M159.32,97.45c-9.79-11.61-20.56-22.56-32.02-32.54C94.2,36.21,54.42,14.75,12.26,2.86,8.19,1.69,4.1,.74,0,0V4.07c3.73,.7,7.46,1.58,11.17,2.64,41.6,11.73,80.85,32.9,113.5,61.22,5.65,4.92,11.14,10.08,16.42,15.44,5.28,5.36,10.35,10.93,15.18,16.66,29.02,34.41,35.23,80.66,19.21,119.88-5.44,13.34-13.47,25.88-24.04,36.85-38.51,39.95-64.35,89.87-74.74,144.37-7.89,41.27-37.17,75.18-76.7,89.06v4.22c41.54-14.04,72.39-49.4,80.63-92.53,10.25-53.74,35.73-102.96,73.69-142.35,9.63-10,17.37-21.47,22.97-33.9,6.49-14.37,10.15-30.01,10.63-46.12,.89-29.99-9.26-59.13-28.6-82.06Z"/>
      </g>
    </g>
  </g>
</svg>