<?xml version="1.0" encoding="UTF-8"?>
<svg id="Capa_2" data-name="Capa 2" xmlns="http://www.w3.org/2000/svg" viewBox="0 0 144.52 464.02">
  <defs>
    <style>
      .cls-1 {
        fill: #75bbe2;
      }

      .cls-2 {
        fill: #94cbe9;
      }

      .cls-3 {
        fill: none;
      }

      .cls-4 {
        fill: #c0e3f3;
      }
    </style>
  </defs>
  <g id="Capa_1-2" data-name="Capa 1">
    <g>
      <g id="Trazado_6967" data-name="Trazado 6967">
        <path class="cls-1" d="M142.29,21.38c-27.85,17.02-54.75,35.56-80.57,55.54-1.51,1.17-3.02,2.35-4.53,3.53-5.71,4.47-11.36,9.02-16.96,13.64-20.32,16.82-29.64,43.51-24.21,69.32,1.25,5.9,2.57,11.79,3.95,17.66,8.77,37.29,20.1,73.91,33.91,109.59,1.83,4.73,3.7,9.45,5.63,14.14,1.51,3.74,3.07,7.46,4.65,11.18,4.73,11.14,9.72,22.18,14.94,33.11,18.22,38.11,39.35,74.7,63.19,109.47,0,0,.74-437.63,0-437.18h0Z"/>
      </g>
      <g id="Trazado_7007" data-name="Trazado 7007">
        <path class="cls-2" d="M142.29,22.32V370.05c-27-16.6-53.09-34.64-78.13-54.07-1.21-.92-2.41-1.86-3.61-2.8-1.5-1.18-2.99-2.35-4.48-3.54-11.63-9.23-23.02-18.77-34.18-28.59-23.08-20.32-28.61-54.09-13.22-80.7,3.69-6.48,7.46-12.9,11.3-19.28,10.04-16.64,20.62-32.93,31.71-48.85,1.51-2.16,3.02-4.3,4.54-6.44,20.78-29.25,43.33-57.23,67.55-83.78,6.08-6.66,12.25-13.22,18.52-19.68Z"/>
      </g>
      <g id="Trazado_7012" data-name="Trazado 7012">
        <path class="cls-2" d="M142.29,22.32V370.05c-27-16.6-53.09-34.64-78.13-54.07-1.21-.92-2.41-1.86-3.61-2.8-1.5-1.18-2.99-2.35-4.48-3.54-11.63-9.23-23.02-18.77-34.18-28.59-23.08-20.32-28.61-54.09-13.22-80.7,3.69-6.48,7.46-12.9,11.3-19.28,10.04-16.64,20.62-32.93,31.71-48.85,1.51-2.16,3.02-4.3,4.54-6.44,20.78-29.25,43.33-57.23,67.55-83.78,6.08-6.66,12.25-13.22,18.52-19.68Z"/>
      </g>
      <g id="Trazado_7013" data-name="Trazado 7013">
        <path class="cls-4" d="M142.29,459.92c-4.81-1.1-9.6-2.26-14.39-3.45-24.93-6.27-44.18-25.68-50.23-50.66-7.33-30.48-13.05-61.45-17.12-92.63-.36-2.79-.71-5.58-1.04-8.38-2.56-21.13-4.35-42.34-5.38-63.54-1.85-38.44-1.15-77.08,2.09-115.48,1.37-16.34,3.21-32.64,5.5-48.86,.94-6.7,1.97-13.39,3.07-20.06,4.82-29.29,29.86-51.29,59.54-52.31,5.98-.24,11.97-.43,17.96-.55V0c-6.04,.12-12.08,.31-18.11,.56-31.57,1.08-58.2,24.48-63.34,55.65-1.33,8.06-2.55,16.14-3.65,24.24-2.35,17.19-4.18,34.46-5.51,51.77-2.78,36.34-3.3,72.87-1.55,109.23,.79,16.41,2.04,32.83,3.75,49.21,.66,6.33,1.39,12.66,2.19,18.98,4.11,32.69,10.03,65.16,17.71,97.11,6.41,26.43,26.77,46.97,53.15,53.6,5.11,1.27,10.23,2.5,15.36,3.67v-4.1Z"/>
      </g>
      <path class="cls-3" d="M142.29,21.38c.74-.45,1.49-.91,2.23-1.35-.75,.76-1.5,1.53-2.23,2.29"/>
    </g>
  </g>
</svg>