<?xml version="1.0" encoding="UTF-8"?>
<svg id="Capa_2" data-name="Capa 2" xmlns="http://www.w3.org/2000/svg" viewBox="0 0 96.08 361.01">
  <defs>
    <style>
      .cls-1 {
        fill: #75bbe2;
      }

      .cls-2 {
        fill: #50a8db;
      }
    </style>
  </defs>
  <g id="Capa_1-2" data-name="Capa 1">
    <g>
      <g id="Trazado_7023" data-name="Trazado 7023">
        <path class="cls-1" d="M96.08,0V361.01c-24.75-17.17-48.56-35.71-71.34-55.5C4.87,288.17-3.76,261.25,2.34,235.59c2.93-12.2,6.11-24.34,9.55-36.4,.52-1.84,1.05-3.68,1.59-5.51,9.88-33.84,21.76-67.07,35.59-99.51,1.07-2.5,2.15-5,3.24-7.49,1.28-2.92,2.57-5.84,3.88-8.75C68.18,51.29,81.51,25.28,96.08,0Z"/>
      </g>
      <g id="Trazado_7024" data-name="Trazado 7024">
        <path class="cls-2" d="M27.17,111.55c7.2-5.91,14.5-11.7,21.9-17.38,15.29-11.74,30.97-22.99,47.01-33.71v-4.81c-14.9,9.89-29.5,20.24-43.77,31.03-9.37,7.07-18.6,14.33-27.67,21.77C.08,128.31-7.1,163.03,7.55,191.01c1.43,2.74,2.88,5.46,4.34,8.18,24.22,45.12,52.47,88.19,84.19,128.42v-6.48c-31.14-39.97-58.85-82.72-82.6-127.45-.8-1.51-1.6-3.02-2.39-4.53-13.77-26.29-7.01-58.93,16.08-77.6Z"/>
      </g>
    </g>
  </g>
</svg>