<?xml version="1.0" encoding="UTF-8"?>
<svg id="Capa_2" data-name="Capa 2" xmlns="http://www.w3.org/2000/svg" viewBox="0 0 134.38 343.72">
  <defs>
    <style>
      .cls-1 {
        fill: #75bbe2;
      }

      .cls-2 {
        fill: #94cbe9;
      }
    </style>
  </defs>
  <g id="Capa_1-2" data-name="Capa 1">
    <g>
      <g id="Trazado_7010" data-name="Trazado 7010">
        <path class="cls-1" d="M94.83,230.14c-.18,1.66-.43,3.31-.74,4.96-.74,4.04-1.83,8.05-3.26,11.98-8.97,24.95-23.33,47.61-42.07,66.38-6.48,6.47-13.46,12.44-20.86,17.84-8.56,6.26-18.08,10.38-27.9,12.42V28.34c11.09,4.03,22.06,9.15,32.75,15.31,30.59,17.62,44.34,55.13,31.48,88-1.17,2.98-1.91,6.11-2.2,9.3-.96,10.92,3.63,21.7,11.66,29.38,16.3,15.62,23.67,37.91,21.14,59.81Z"/>
      </g>
      <g id="Trazado_7011" data-name="Trazado 7011">
        <path class="cls-2" d="M77.1,32.42C52.35,12.05,24.17,3.31,0,0V4.04c23.46,3.29,50.68,11.81,74.56,31.47,36.37,29.94,56.71,79.02,55.79,134.66-.41,25.41-14.59,48.05-35.52,59.97-7.41,4.22-15.66,7.1-24.45,8.28-3.36,.44-6.65,1.36-9.75,2.74-10.21,4.54-18.12,14.17-21.17,25.76-5.42,20.53-20.14,37.11-39.46,45.56v4.35c21.2-8.7,37.45-26.6,43.32-48.89,2.75-10.43,9.83-19.08,18.93-23.13,2.75-1.22,5.67-2.03,8.66-2.43,8.25-1.1,16.05-3.62,23.18-7.28,23.6-12.15,39.8-36.93,40.26-64.87,.94-56.86-19.93-107.09-57.25-137.81Z"/>
      </g>
    </g>
  </g>
</svg>