<?xml version="1.0" encoding="UTF-8"?>
<svg id="Capa_2" data-name="Capa 2" xmlns="http://www.w3.org/2000/svg" viewBox="0 0 203.39 574.97">
  <defs>
    <style>
      .cls-1 {
        fill: #75bbe2;
      }

      .cls-2 {
        fill: #94cbe9;
      }

      .cls-3 {
        fill: #50a8db;
      }
    </style>
  </defs>
  <g id="Capa_1-2" data-name="Capa 1">
    <g>
      <g id="Trazado_7019" data-name="Trazado 7019">
        <path class="cls-1" d="M199.02,236.67c-2.11,9.5-4.46,18.93-7.05,28.3-.55,2-1.12,4-1.69,5.99-9.2,31.89-21.18,62.93-35.82,92.76-5.35,10.9-11.06,21.61-17.11,32.13-2.08,3.63-4.21,7.23-6.39,10.81-3.06,5.07-6.21,10.1-9.45,15.07-14.32,22.05-30.21,43.09-47.55,62.94-14.06,16.13-34.89,24.37-55.86,22.53-1.97-.17-3.94-.43-5.91-.79-1.03-.18-2.05-.39-3.08-.62-3.04-.69-6.08-1.4-9.11-2.12V0C7.82,5.58,15.55,11.29,23.19,17.12c7.96,6.08,15.82,12.3,23.56,18.64,37.31,30.53,72.09,64.02,104,100.13,12,13.57,23.58,27.5,34.75,41.79,13.08,16.66,18.04,38.3,13.52,58.99Z"/>
      </g>
      <g id="Trazado_7021" data-name="Trazado 7021">
        <path class="cls-2" d="M152.22,288.34c-2.78,36.14-7.75,72.04-14.87,107.51-.36,1.8-.72,3.59-1.09,5.38-.51,2.44-1.02,4.88-1.55,7.32-7.53,34.96-17.17,69.49-28.85,103.37-6.86,20.05-22.31,35.98-42.14,43.46-20.86,7.78-42.14,14.32-63.72,19.59V36.29c15.57-.6,31.16-.78,46.75-.53,12.9,.19,25.79,.66,38.68,1.43,30.69,1.81,55.84,25.03,60.09,55.48,2.1,14.37,3.85,28.78,5.23,43.22,1.92,19.9,3.16,39.85,3.72,59.83,.07,2.6,.14,5.2,.18,7.8,.55,28.27-.26,56.58-2.43,84.82Z"/>
      </g>
      <g id="Trazado_7022" data-name="Trazado 7022">
        <path class="cls-3" d="M197.97,278.67c-1.94-4.59-3.94-9.16-6-13.7-10.86-23.94-23.39-47.09-37.5-69.25-9.38-14.74-19.45-29.05-30.18-42.87-27.71-35.65-59.66-67.97-94.99-96.09-8.73-6.9-18.75-11.62-29.3-13.98v4.1c9.65,2.3,18.8,6.69,26.81,13.02,35.08,27.91,66.81,60.01,94.32,95.4,12.03,15.48,23.21,31.58,33.52,48.22,13.4,21.62,25.31,44.16,35.63,67.44,1.37,3.07,2.7,6.16,4.01,9.26h0c9.26,21.9,5.75,47-9.16,65.52-15.45,19.24-31.76,37.76-48.87,55.49-1.76,1.82-3.52,3.63-5.3,5.43-29.64,30.16-61.63,58-95.64,83.22-7.61,5.64-15.32,11.16-23.13,16.53-4.04,2.79-8.1,5.54-12.19,8.26v4.79c6.09-4.01,12.12-8.1,18.1-12.26,6.61-4.61,13.14-9.31,19.61-14.1,29.52-21.89,57.52-45.75,83.8-71.37,4.46-4.34,8.86-8.74,13.2-13.18,18.82-19.19,36.69-39.32,53.54-60.3,15.83-19.67,19.56-46.33,9.72-69.58Z"/>
      </g>
    </g>
  </g>
</svg>