<?xml version="1.0" encoding="UTF-8"?>
<svg id="Capa_2" data-name="Capa 2" xmlns="http://www.w3.org/2000/svg" viewBox="0 0 263.32 547.4">
  <defs>
    <style>
      .cls-1 {
        fill: #75bbe2;
      }

      .cls-2 {
        fill: #94cbe9;
      }
    </style>
  </defs>
  <g id="Capa_1-2" data-name="Capa 1">
    <g>
      <g id="Trazado_7010" data-name="Trazado 7010">
        <path class="cls-1" d="M263.32,26.11V547.4c-12.43-6.25-23.91-14.82-33.75-25.66-.13-.13-.25-.25-.36-.38-1.27-1.41-2.56-2.81-3.87-4.19-11.83-12.62-24.82-24.1-38.8-34.31-28.08-20.47-59.72-35.56-93.31-44.48-2.29-.61-4.56-1.28-6.79-2.02-1.69-.55-3.35-1.15-5-1.78-35.85-13.64-63.13-44-72.6-81.7-3.7-14.81-6.26-29.89-7.64-45.09-4.09-45.73,2.35-91.78,18.83-134.62,2.12-5.5,4.65-10.83,7.56-15.94,18.53-32.57,57.96-88.68,127.18-116,5.65-2.23,11.39-4.23,17.2-5.98,5.25-1.59,10.55-2.99,15.91-4.2,24.31-5.49,49.7-7.07,75.44-4.94Z"/>
      </g>
      <g id="Trazado_7011" data-name="Trazado 7011">
        <path class="cls-2" d="M122.21,77.31c11.05-10.31,23-19.85,35.5-28.35,9.68-6.55,19.77-12.53,30.17-17.91,23.79-12.29,49.26-21.4,75.44-26.97V0c-32.06,6.71-63.08,18.69-91.35,35.25-5.61,3.29-11.12,6.76-16.5,10.4-12.68,8.61-24.79,18.28-35.99,28.74-31.94,29.89-45.14,74.8-34.44,117.22,8.45,33.59,10.57,68.06,6.29,102.44-2.37,18.89-6.71,37.59-12.9,55.59-9.52,27.72-8.45,57.85,3.01,84.94,.08,.22,.18,.44,.27,.66,5.85,13.61,14.08,25.87,24.21,36.29,10.13,10.42,22.15,19,35.58,25.22,13.6,6.31,27.8,11.62,42.21,15.77,14.98,4.28,30.34,7.36,45.86,9.22,11.19,1.35,22.47,2.06,33.75,2.13v-4c-12.7-.08-25.4-.99-37.98-2.7-13.71-1.88-27.27-4.71-40.52-8.5-7.11-2.04-14.16-4.38-21.12-6.97-6.95-2.6-13.81-5.47-20.52-8.58-26.03-12.07-45.61-32.53-56.74-56.76-11.97-26.03-14.2-56.41-4.23-85.42,6.28-18.26,10.68-37.23,13.09-56.39,4.34-34.88,2.19-69.84-6.39-103.92-10.34-41.01,2.42-84.43,33.3-113.32Z"/>
      </g>
    </g>
  </g>
</svg>