<?xml version="1.0" encoding="UTF-8"?>
<svg id="Capa_2" data-name="Capa 2" xmlns="http://www.w3.org/2000/svg" viewBox="0 0 114.98 434.95">
  <defs>
    <style>
      .cls-1 {
        fill: #75bbe2;
      }

      .cls-2 {
        fill: #c0e3f3;
      }
    </style>
  </defs>
  <g id="Capa_1-2" data-name="Capa 1">
    <g>
      <g id="Trazado_7026" data-name="Trazado 7026">
        <path class="cls-1" d="M114.98,0V434.95c-6.12-6.14-11.15-13.44-14.74-21.65-5.09-11.7-9.93-23.49-14.5-35.39-.66-1.7-1.31-3.4-1.95-5.11-14.51-38.39-26.35-77.76-35.43-117.82-5.27-23.27-9.57-46.73-12.92-70.32-.4-2.78-.78-5.57-1.15-8.36-4.61-34.86-7.12-69.99-7.5-105.2-.35-30.74,21.05-57.45,51.12-63.82,12.31-2.69,24.67-5.12,37.07-7.28Z"/>
      </g>
      <g id="Trazado_7025" data-name="Trazado 7025">
        <path class="cls-2" d="M35.44,184.66c10.87-29.5,23.33-58.41,37.27-86.56,12.86-25.93,26.97-51.22,42.27-75.76v-7.54c-16.67,26.34-31.99,53.56-45.86,81.52-12.91,26.05-24.54,52.76-34.83,79.98C21.38,210.43,10.57,245.34,1.97,280.76c-7.66,30.66,7.51,62.72,36.06,76.25,15.68,7.44,31.59,14.41,47.71,20.9,9.67,3.91,19.42,7.64,29.24,11.19v-4.25c-10.48-3.82-20.88-7.83-31.19-12.05-14.86-6.06-29.55-12.53-44.04-19.4-26.84-12.72-41.09-42.86-33.89-71.68,7.98-32.87,17.87-65.3,29.58-97.06Z"/>
      </g>
    </g>
  </g>
</svg>